<svg width="1026" height="294" viewBox="0 0 1026 294" fill="none" xmlns="http://www.w3.org/2000/svg">
<path d="M293.062 180.2C288.929 180.2 285.029 179.5 281.362 178.1C277.695 176.633 274.462 174.5 271.662 171.7C268.929 168.9 266.762 165.433 265.162 161.3C263.562 157.1 262.762 152.267 262.762 146.8C262.762 141.4 263.595 136.6 265.262 132.4C266.929 128.133 269.162 124.533 271.962 121.6C274.762 118.667 278.029 116.433 281.762 114.9C285.495 113.367 289.429 112.6 293.562 112.6C297.762 112.6 301.529 113.467 304.862 115.2C308.195 116.867 310.962 118.833 313.162 121.1L305.362 130.5C303.695 128.967 301.929 127.733 300.062 126.8C298.262 125.8 296.195 125.3 293.862 125.3C291.662 125.3 289.562 125.8 287.562 126.8C285.629 127.733 283.929 129.1 282.462 130.9C281.062 132.7 279.929 134.9 279.062 137.5C278.262 140.1 277.862 143.033 277.862 146.3C277.862 153.033 279.295 158.267 282.162 162C285.029 165.667 288.862 167.5 293.662 167.5C296.329 167.5 298.695 166.933 300.762 165.8C302.895 164.6 304.762 163.133 306.362 161.4L314.162 170.6C308.695 177 301.662 180.2 293.062 180.2ZM320.165 179V171.1L340.965 140.9H322.465V129.4H359.265V137.2L338.465 167.5H359.965V179H320.165ZM390.085 180.2C386.551 180.2 383.251 179.633 380.185 178.5C377.118 177.3 374.451 175.6 372.185 173.4C369.918 171.133 368.151 168.4 366.885 165.2C365.618 162 364.985 158.333 364.985 154.2C364.985 150.2 365.651 146.6 366.985 143.4C368.318 140.133 370.051 137.4 372.185 135.2C374.385 132.933 376.885 131.2 379.685 130C382.485 128.8 385.385 128.2 388.385 128.2C391.918 128.2 394.985 128.8 397.585 130C400.251 131.2 402.451 132.867 404.185 135C405.985 137.133 407.318 139.667 408.185 142.6C409.051 145.467 409.485 148.6 409.485 152C409.485 153.333 409.418 154.6 409.285 155.8C409.151 157 409.018 157.9 408.885 158.5H379.185C379.851 162.1 381.318 164.767 383.585 166.5C385.918 168.167 388.751 169 392.085 169C395.618 169 399.185 167.9 402.785 165.7L407.685 174.6C405.151 176.333 402.318 177.7 399.185 178.7C396.118 179.7 393.085 180.2 390.085 180.2ZM379.085 148.8H396.985C396.985 146 396.351 143.733 395.085 142C393.818 140.267 391.685 139.4 388.685 139.4C386.351 139.4 384.285 140.167 382.485 141.7C380.751 143.233 379.618 145.6 379.085 148.8ZM441.243 180.2C437.776 180.2 434.543 179.633 431.543 178.5C428.609 177.3 426.043 175.6 423.843 173.4C421.643 171.2 419.909 168.5 418.643 165.3C417.376 162.033 416.743 158.333 416.743 154.2C416.743 150.067 417.443 146.4 418.843 143.2C420.243 139.933 422.109 137.2 424.443 135C426.843 132.8 429.609 131.133 432.743 130C435.876 128.8 439.143 128.2 442.543 128.2C445.609 128.2 448.309 128.7 450.643 129.7C453.043 130.7 455.176 131.967 457.043 133.5L450.143 143C447.809 141.067 445.576 140.1 443.443 140.1C439.843 140.1 437.009 141.367 434.943 143.9C432.876 146.433 431.843 149.867 431.843 154.2C431.843 158.533 432.876 161.967 434.943 164.5C437.076 167.033 439.743 168.3 442.943 168.3C444.543 168.3 446.076 167.967 447.543 167.3C449.076 166.567 450.509 165.7 451.843 164.7L457.643 174.3C455.176 176.433 452.509 177.967 449.643 178.9C446.776 179.767 443.976 180.2 441.243 180.2ZM466.322 179V108.9H481.022V126.1L480.322 135C482.189 133.333 484.356 131.8 486.822 130.4C489.289 128.933 492.222 128.2 495.622 128.2C501.022 128.2 504.922 129.967 507.322 133.5C509.789 137.033 511.022 141.933 511.022 148.2V179H496.322V150.1C496.322 146.5 495.822 144.033 494.822 142.7C493.889 141.367 492.356 140.7 490.222 140.7C488.356 140.7 486.756 141.133 485.422 142C484.089 142.8 482.622 143.967 481.022 145.5V179H466.322ZM524.651 179V113.8H565.751V126.2H539.351V141.3H561.951V153.7H539.351V179H524.651ZM588.937 180.2C583.537 180.2 579.604 178.433 577.137 174.9C574.737 171.367 573.537 166.467 573.537 160.2V129.4H588.237V158.3C588.237 161.9 588.737 164.367 589.737 165.7C590.737 167.033 592.304 167.7 594.437 167.7C596.304 167.7 597.87 167.267 599.137 166.4C600.404 165.533 601.77 164.133 603.237 162.2V129.4H617.937V179H605.937L604.837 172.1H604.537C602.404 174.633 600.104 176.633 597.637 178.1C595.237 179.5 592.337 180.2 588.937 180.2ZM649.973 180.2C646.906 180.2 644.273 179.733 642.073 178.8C639.94 177.867 638.173 176.567 636.773 174.9C635.44 173.233 634.44 171.233 633.773 168.9C633.173 166.5 632.873 163.867 632.873 161V140.9H626.073V130L633.673 129.4L635.373 116.2H647.573V129.4H659.473V140.9H647.573V160.8C647.573 163.6 648.14 165.633 649.273 166.9C650.473 168.1 652.04 168.7 653.973 168.7C654.773 168.7 655.573 168.6 656.373 168.4C657.24 168.2 658.006 167.967 658.673 167.7L660.973 178.4C659.64 178.8 658.073 179.2 656.273 179.6C654.473 180 652.373 180.2 649.973 180.2ZM684.054 180.2C678.654 180.2 674.721 178.433 672.254 174.9C669.854 171.367 668.654 166.467 668.654 160.2V129.4H683.354V158.3C683.354 161.9 683.854 164.367 684.854 165.7C685.854 167.033 687.421 167.7 689.554 167.7C691.421 167.7 692.988 167.267 694.254 166.4C695.521 165.533 696.888 164.133 698.354 162.2V129.4H713.054V179H701.054L699.954 172.1H699.654C697.521 174.633 695.221 176.633 692.754 178.1C690.354 179.5 687.454 180.2 684.054 180.2ZM725.99 179V129.4H737.99L738.99 138.1H739.39C741.19 134.7 743.357 132.2 745.89 130.6C748.424 129 750.957 128.2 753.49 128.2C754.89 128.2 756.024 128.3 756.89 128.5C757.824 128.633 758.657 128.867 759.39 129.2L756.99 141.9C756.057 141.633 755.19 141.433 754.39 141.3C753.59 141.167 752.657 141.1 751.59 141.1C749.724 141.1 747.757 141.767 745.69 143.1C743.69 144.433 742.024 146.8 740.69 150.2V179H725.99ZM787.057 180.2C783.524 180.2 780.224 179.633 777.157 178.5C774.091 177.3 771.424 175.6 769.157 173.4C766.891 171.133 765.124 168.4 763.857 165.2C762.591 162 761.957 158.333 761.957 154.2C761.957 150.2 762.624 146.6 763.957 143.4C765.291 140.133 767.024 137.4 769.157 135.2C771.357 132.933 773.857 131.2 776.657 130C779.457 128.8 782.357 128.2 785.357 128.2C788.891 128.2 791.957 128.8 794.557 130C797.224 131.2 799.424 132.867 801.157 135C802.957 137.133 804.291 139.667 805.157 142.6C806.024 145.467 806.457 148.6 806.457 152C806.457 153.333 806.391 154.6 806.257 155.8C806.124 157 805.991 157.9 805.857 158.5H776.157C776.824 162.1 778.291 164.767 780.557 166.5C782.891 168.167 785.724 169 789.057 169C792.591 169 796.157 167.9 799.757 165.7L804.657 174.6C802.124 176.333 799.291 177.7 796.157 178.7C793.091 179.7 790.057 180.2 787.057 180.2ZM776.057 148.8H793.957C793.957 146 793.324 143.733 792.057 142C790.791 140.267 788.657 139.4 785.657 139.4C783.324 139.4 781.257 140.167 779.457 141.7C777.724 143.233 776.591 145.6 776.057 148.8ZM825.115 180.2C822.582 180.2 820.449 179.333 818.715 177.6C817.049 175.8 816.215 173.6 816.215 171C816.215 168.333 817.049 166.133 818.715 164.4C820.449 162.6 822.582 161.7 825.115 161.7C827.649 161.7 829.749 162.6 831.415 164.4C833.149 166.133 834.015 168.333 834.015 171C834.015 173.6 833.149 175.8 831.415 177.6C829.749 179.333 827.649 180.2 825.115 180.2ZM859.348 180.2C856.281 180.2 853.648 179.733 851.448 178.8C849.315 177.867 847.548 176.567 846.148 174.9C844.815 173.233 843.815 171.233 843.148 168.9C842.548 166.5 842.248 163.867 842.248 161V140.9H835.448V130L843.048 129.4L844.748 116.2H856.948V129.4H868.848V140.9H856.948V160.8C856.948 163.6 857.515 165.633 858.648 166.9C859.848 168.1 861.415 168.7 863.348 168.7C864.148 168.7 864.948 168.6 865.748 168.4C866.615 168.2 867.381 167.967 868.048 167.7L870.348 178.4C869.015 178.8 867.448 179.2 865.648 179.6C863.848 180 861.748 180.2 859.348 180.2ZM898.971 180.2C895.438 180.2 892.138 179.633 889.071 178.5C886.005 177.3 883.338 175.6 881.071 173.4C878.805 171.133 877.038 168.4 875.771 165.2C874.505 162 873.871 158.333 873.871 154.2C873.871 150.2 874.538 146.6 875.871 143.4C877.205 140.133 878.938 137.4 881.071 135.2C883.271 132.933 885.771 131.2 888.571 130C891.371 128.8 894.271 128.2 897.271 128.2C900.805 128.2 903.871 128.8 906.471 130C909.138 131.2 911.338 132.867 913.071 135C914.871 137.133 916.205 139.667 917.071 142.6C917.938 145.467 918.371 148.6 918.371 152C918.371 153.333 918.305 154.6 918.171 155.8C918.038 157 917.905 157.9 917.771 158.5H888.071C888.738 162.1 890.205 164.767 892.471 166.5C894.805 168.167 897.638 169 900.971 169C904.505 169 908.071 167.9 911.671 165.7L916.571 174.6C914.038 176.333 911.205 177.7 908.071 178.7C905.005 179.7 901.971 180.2 898.971 180.2ZM887.971 148.8H905.871C905.871 146 905.238 143.733 903.971 142C902.705 140.267 900.571 139.4 897.571 139.4C895.238 139.4 893.171 140.167 891.371 141.7C889.638 143.233 888.505 145.6 887.971 148.8ZM950.129 180.2C946.663 180.2 943.429 179.633 940.429 178.5C937.496 177.3 934.929 175.6 932.729 173.4C930.529 171.2 928.796 168.5 927.529 165.3C926.263 162.033 925.629 158.333 925.629 154.2C925.629 150.067 926.329 146.4 927.729 143.2C929.129 139.933 930.996 137.2 933.329 135C935.729 132.8 938.496 131.133 941.629 130C944.763 128.8 948.029 128.2 951.429 128.2C954.496 128.2 957.196 128.7 959.529 129.7C961.929 130.7 964.063 131.967 965.929 133.5L959.029 143C956.696 141.067 954.463 140.1 952.329 140.1C948.729 140.1 945.896 141.367 943.829 143.9C941.763 146.433 940.729 149.867 940.729 154.2C940.729 158.533 941.763 161.967 943.829 164.5C945.963 167.033 948.629 168.3 951.829 168.3C953.429 168.3 954.963 167.967 956.429 167.3C957.963 166.567 959.396 165.7 960.729 164.7L966.529 174.3C964.063 176.433 961.396 177.967 958.529 178.9C955.663 179.767 952.863 180.2 950.129 180.2ZM975.209 179V108.9H989.909V126.1L989.209 135C991.076 133.333 993.242 131.8 995.709 130.4C998.176 128.933 1001.11 128.2 1004.51 128.2C1009.91 128.2 1013.81 129.967 1016.21 133.5C1018.68 137.033 1019.91 141.933 1019.91 148.2V179H1005.21V150.1C1005.21 146.5 1004.71 144.033 1003.71 142.7C1002.78 141.367 1001.24 140.7 999.109 140.7C997.242 140.7 995.642 141.133 994.309 142C992.976 142.8 991.509 143.967 989.909 145.5V179H975.209Z" fill="white"/>
<mask id="mask0" mask-type="alpha" maskUnits="userSpaceOnUse" x="50" y="41" width="197" height="203">
<path d="M206.949 224.428L119.535 243.206L50.3932 186.444L51.5887 96.8857L122.221 41.9697L209.104 63.0492L246.811 144.251L206.949 224.428Z" fill="#C4C4C4"/>
</mask>
<g mask="url(#mask0)">
<path fill-rule="evenodd" clip-rule="evenodd" d="M52.2614 187.98L0.0341491 254.12L-9.70229 246.403L50.6096 170.025L51.5859 96.8858L122.219 41.9698L209.101 63.0494L246.808 144.251L206.947 224.429L119.532 243.206L111.465 236.584L85.7002 269.093L75.9775 261.359L101.862 228.699L71.298 203.608L45.5341 236.235L35.7976 228.518L61.6939 195.724L52.2614 187.98ZM235.375 144.1L199.937 215.378L122.226 232.072L117.873 228.499L168.297 164.876L177.614 172.288L182.741 136.949L149.547 149.961L158.574 157.142L108.269 220.614L98.1769 212.329L175.424 114.505L184.483 121.712L184.534 121.361L184.641 121.446L189.706 86.0977L156.535 99.1692L156.678 99.2825L156.416 99.3851L165.444 106.566L88.1472 204.095L77.6917 195.512L127.945 131.872L136.986 139.037L142.05 103.689L108.879 116.76L118.209 124.155L68.0876 187.627L60.7582 181.61L60.8178 177.145L82.4455 149.756L91.4857 156.921L96.5499 121.573L63.379 134.644L72.7091 142.039L61.09 156.753L61.821 101.992L124.614 53.1716L201.852 71.9114L235.375 144.1Z" fill="#903068"/>
</g>
</svg>
