<?xml version="1.0" encoding="UTF-8"?>
<svg width="220px" height="220px" viewBox="0 0 220 220" version="1.1" xmlns="http://www.w3.org/2000/svg" xmlns:xlink="http://www.w3.org/1999/xlink">
    <defs>
        <path d="M156.9458,183.4283 L69.5318003,202.2063 L0.390000343,145.4443 L1.58550034,55.8860003 L72.2178003,0.970000267 L159.1008,22.0495003 L196.8078,103.2513 L156.9458,183.4283 Z M185.3718,103.1003 L149.9338,174.3783 L72.2228003,191.0723 L67.8698003,187.4993 L118.2938,123.8763 L127.6108,131.2883 L132.7378,95.9493003 L99.5438003,108.9613 L108.5708,116.1423 L58.2658003,179.6143 L48.1737003,171.3293 L125.4208,73.5053003 L134.4798,80.7123003 L134.5308,80.3613003 L134.6378,80.4463003 L139.7028,45.0980003 L106.5318,58.1695003 L106.6748,58.2828003 L106.4128,58.3854003 L115.4408,65.5663003 L38.1440003,163.0953 L27.6885003,154.5123 L77.9418003,90.8723003 L86.9828003,98.0373003 L92.0468003,62.6893003 L58.8758003,75.7603003 L68.2058003,83.1553003 L18.0844003,146.6273 L10.7550003,140.6103 L10.8146003,136.1453 L32.4423003,108.7563 L41.4825003,115.9213 L46.5467003,80.5733003 L13.3758003,93.6443003 L22.7059003,101.0393 L11.0868003,115.7533 L11.8178003,60.9923003 L74.6108003,12.1719003 L151.8488,30.9117003 L185.3718,103.1003 Z" id="path-1"></path>
    </defs>
    <g id="Page-1" stroke="none" stroke-width="1" fill="none" fill-rule="evenodd">
        <g id="event_icon" transform="translate(13.000000, 9.000000)">
            <mask id="mask-2" fill="white">
                <use xlink:href="#path-1"></use>
            </mask>
            <use id="Icon" fill="#903068" xlink:href="#path-1"></use>
        </g>
    </g>
</svg>