<?xml version="1.0" encoding="UTF-8"?>
<svg width="995px" height="222px" viewBox="0 0 995 222" version="1.1" xmlns="http://www.w3.org/2000/svg" xmlns:xlink="http://www.w3.org/1999/xlink">
    <defs>
        <path d="M169.5558,192.4583 L82.1418,211.2363 L13,154.4743 L14.1955,64.916 L84.8278,10 L171.7108,31.0795 L209.4178,112.2813 L169.5558,192.4583 Z M197.9818,112.1303 L162.5438,183.4083 L84.8328,200.1023 L80.4798,196.5293 L130.9038,132.9063 L140.2208,140.3183 L145.3478,104.9793 L112.1538,117.9913 L121.1808,125.1723 L70.8758,188.6443 L60.7837,180.3593 L138.0308,82.5353 L147.0898,89.7423 L147.1408,89.3913 L147.2478,89.4763 L152.3128,54.128 L119.1418,67.1995 L119.2848,67.3128 L119.0228,67.4154 L128.0508,74.5963 L50.754,172.1253 L40.2985,163.5423 L90.5518,99.9023 L99.5928,107.0673 L104.6568,71.7193 L71.4858,84.7903 L80.8158,92.1853 L30.6944,155.6573 L23.365,149.6403 L23.4246,145.1753 L45.0523,117.7863 L54.0925,124.9513 L59.1567,89.6033 L25.9858,102.6743 L35.3159,110.0693 L23.6968,124.7833 L24.4278,70.0223 L87.2208,21.2019 L164.4588,39.9417 L197.9818,112.1303 Z" id="path-1"></path>
    </defs>
    <g id="Page-1" stroke="none" stroke-width="1" fill="none" fill-rule="evenodd" >
        <path d="M255.062,147.2 C250.929,147.2 247.029,146.5 243.362,145.1 C239.695,143.633 236.462,141.5 233.662,138.7 C230.929,135.9 228.762,132.433 227.162,128.3 C225.562,124.1 224.762,119.267 224.762,113.8 C224.762,108.4 225.595,103.6 227.262,99.4 C228.929,95.133 231.162,91.533 233.962,88.6 C236.762,85.667 240.029,83.433 243.762,81.9 C247.495,80.367 251.429,79.6 255.562,79.6 C259.762,79.6 263.529,80.467 266.862,82.2 C270.195,83.867 272.962,85.833 275.162,88.1 L267.362,97.5 C265.695,95.967 263.929,94.733 262.062,93.8 C260.262,92.8 258.195,92.3 255.862,92.3 C253.662,92.3 251.562,92.8 249.562,93.8 C247.629,94.733 245.929,96.1 244.462,97.9 C243.062,99.7 241.929,101.9 241.062,104.5 C240.262,107.1 239.862,110.033 239.862,113.3 C239.862,120.033 241.295,125.267 244.162,129 C247.029,132.667 250.862,134.5 255.662,134.5 C258.329,134.5 260.695,133.933 262.762,132.8 C264.895,131.6 266.762,130.133 268.362,128.4 L276.162,137.6 C270.695,144 263.662,147.2 255.062,147.2 L255.062,147.2 Z M282.165,146 L282.165,138.1 L302.965,107.9 L284.465,107.9 L284.465,96.4 L321.265,96.4 L321.265,104.2 L300.465,134.5 L321.965,134.5 L321.965,146 L282.165,146 L282.165,146 Z M352.085,147.2 C348.551,147.2 345.251,146.633 342.185,145.5 C339.118,144.3 336.451,142.6 334.185,140.4 C331.918,138.133 330.151,135.4 328.885,132.2 C327.618,129 326.985,125.333 326.985,121.2 C326.985,117.2 327.651,113.6 328.985,110.4 C330.318,107.133 332.051,104.4 334.185,102.2 C336.385,99.933 338.885,98.2 341.685,97 C344.485,95.8 347.385,95.2 350.385,95.2 C353.918,95.2 356.985,95.8 359.585,97 C362.251,98.2 364.451,99.867 366.185,102 C367.985,104.133 369.318,106.667 370.185,109.6 C371.051,112.467 371.485,115.6 371.485,119 C371.485,120.333 371.418,121.6 371.285,122.8 C371.151,124 371.018,124.9 370.885,125.5 L341.185,125.5 C341.851,129.1 343.318,131.767 345.585,133.5 C347.918,135.167 350.751,136 354.085,136 C357.618,136 361.185,134.9 364.785,132.7 L369.685,141.6 C367.151,143.333 364.318,144.7 361.185,145.7 C358.118,146.7 355.085,147.2 352.085,147.2 L352.085,147.2 Z M341.085,115.8 L358.985,115.8 C358.985,113 358.351,110.733 357.085,109 C355.818,107.267 353.685,106.4 350.685,106.4 C348.351,106.4 346.285,107.167 344.485,108.7 C342.751,110.233 341.618,112.6 341.085,115.8 L341.085,115.8 Z M403.243,147.2 C399.776,147.2 396.543,146.633 393.543,145.5 C390.609,144.3 388.043,142.6 385.843,140.4 C383.643,138.2 381.909,135.5 380.643,132.3 C379.376,129.033 378.743,125.333 378.743,121.2 C378.743,117.067 379.443,113.4 380.843,110.2 C382.243,106.933 384.109,104.2 386.443,102 C388.843,99.8 391.609,98.133 394.743,97 C397.876,95.8 401.143,95.2 404.543,95.2 C407.609,95.2 410.309,95.7 412.643,96.7 C415.043,97.7 417.176,98.967 419.043,100.5 L412.143,110 C409.809,108.067 407.576,107.1 405.443,107.1 C401.843,107.1 399.009,108.367 396.943,110.9 C394.876,113.433 393.843,116.867 393.843,121.2 C393.843,125.533 394.876,128.967 396.943,131.5 C399.076,134.033 401.743,135.3 404.943,135.3 C406.543,135.3 408.076,134.967 409.543,134.3 C411.076,133.567 412.509,132.7 413.843,131.7 L419.643,141.3 C417.176,143.433 414.509,144.967 411.643,145.9 C408.776,146.767 405.976,147.2 403.243,147.2 L403.243,147.2 Z M428.322,146 L428.322,75.9 L443.022,75.9 L443.022,93.1 L442.322,102 C444.189,100.333 446.356,98.8 448.822,97.4 C451.289,95.933 454.222,95.2 457.622,95.2 C463.022,95.2 466.922,96.967 469.322,100.5 C471.789,104.033 473.022,108.933 473.022,115.2 L473.022,146 L458.322,146 L458.322,117.1 C458.322,113.5 457.822,111.033 456.822,109.7 C455.889,108.367 454.356,107.7 452.222,107.7 C450.356,107.7 448.756,108.133 447.422,109 C446.089,109.8 444.622,110.967 443.022,112.5 L443.022,146 L428.322,146 L428.322,146 Z M486.651,146 L486.651,80.8 L527.751,80.8 L527.751,93.2 L501.351,93.2 L501.351,108.3 L523.951,108.3 L523.951,120.7 L501.351,120.7 L501.351,146 L486.651,146 L486.651,146 Z M550.937,147.2 C545.537,147.2 541.604,145.433 539.137,141.9 C536.737,138.367 535.537,133.467 535.537,127.2 L535.537,96.4 L550.237,96.4 L550.237,125.3 C550.237,128.9 550.737,131.367 551.737,132.7 C552.737,134.033 554.304,134.7 556.437,134.7 C558.304,134.7 559.87,134.267 561.137,133.4 C562.404,132.533 563.77,131.133 565.237,129.2 L565.237,96.4 L579.937,96.4 L579.937,146 L567.937,146 L566.837,139.1 L566.537,139.1 C564.404,141.633 562.104,143.633 559.637,145.1 C557.237,146.5 554.337,147.2 550.937,147.2 L550.937,147.2 Z M611.973,147.2 C608.906,147.2 606.273,146.733 604.073,145.8 C601.94,144.867 600.173,143.567 598.773,141.9 C597.44,140.233 596.44,138.233 595.773,135.9 C595.173,133.5 594.873,130.867 594.873,128 L594.873,107.9 L588.073,107.9 L588.073,97 L595.673,96.4 L597.373,83.2 L609.573,83.2 L609.573,96.4 L621.473,96.4 L621.473,107.9 L609.573,107.9 L609.573,127.8 C609.573,130.6 610.14,132.633 611.273,133.9 C612.473,135.1 614.04,135.7 615.973,135.7 C616.773,135.7 617.573,135.6 618.373,135.4 C619.24,135.2 620.006,134.967 620.673,134.7 L622.973,145.4 C621.64,145.8 620.073,146.2 618.273,146.6 C616.473,147 614.373,147.2 611.973,147.2 L611.973,147.2 Z M646.054,147.2 C640.654,147.2 636.721,145.433 634.254,141.9 C631.854,138.367 630.654,133.467 630.654,127.2 L630.654,96.4 L645.354,96.4 L645.354,125.3 C645.354,128.9 645.854,131.367 646.854,132.7 C647.854,134.033 649.421,134.7 651.554,134.7 C653.421,134.7 654.988,134.267 656.254,133.4 C657.521,132.533 658.888,131.133 660.354,129.2 L660.354,96.4 L675.054,96.4 L675.054,146 L663.054,146 L661.954,139.1 L661.654,139.1 C659.521,141.633 657.221,143.633 654.754,145.1 C652.354,146.5 649.454,147.2 646.054,147.2 L646.054,147.2 Z M687.99,146 L687.99,96.4 L699.99,96.4 L700.99,105.1 L701.39,105.1 C703.19,101.7 705.357,99.2 707.89,97.6 C710.424,96 712.957,95.2 715.49,95.2 C716.89,95.2 718.024,95.3 718.89,95.5 C719.824,95.633 720.657,95.867 721.39,96.2 L718.99,108.9 C718.057,108.633 717.19,108.433 716.39,108.3 C715.59,108.167 714.657,108.1 713.59,108.1 C711.724,108.1 709.757,108.767 707.69,110.1 C705.69,111.433 704.024,113.8 702.69,117.2 L702.69,146 L687.99,146 L687.99,146 Z M749.057,147.2 C745.524,147.2 742.224,146.633 739.157,145.5 C736.091,144.3 733.424,142.6 731.157,140.4 C728.891,138.133 727.124,135.4 725.857,132.2 C724.591,129 723.957,125.333 723.957,121.2 C723.957,117.2 724.624,113.6 725.957,110.4 C727.291,107.133 729.024,104.4 731.157,102.2 C733.357,99.933 735.857,98.2 738.657,97 C741.457,95.8 744.357,95.2 747.357,95.2 C750.891,95.2 753.957,95.8 756.557,97 C759.224,98.2 761.424,99.867 763.157,102 C764.957,104.133 766.291,106.667 767.157,109.6 C768.024,112.467 768.457,115.6 768.457,119 C768.457,120.333 768.391,121.6 768.257,122.8 C768.124,124 767.991,124.9 767.857,125.5 L738.157,125.5 C738.824,129.1 740.291,131.767 742.557,133.5 C744.891,135.167 747.724,136 751.057,136 C754.591,136 758.157,134.9 761.757,132.7 L766.657,141.6 C764.124,143.333 761.291,144.7 758.157,145.7 C755.091,146.7 752.057,147.2 749.057,147.2 L749.057,147.2 Z M738.057,115.8 L755.957,115.8 C755.957,113 755.324,110.733 754.057,109 C752.791,107.267 750.657,106.4 747.657,106.4 C745.324,106.4 743.257,107.167 741.457,108.7 C739.724,110.233 738.591,112.6 738.057,115.8 L738.057,115.8 Z M787.115,147.2 C784.582,147.2 782.449,146.333 780.715,144.6 C779.049,142.8 778.215,140.6 778.215,138 C778.215,135.333 779.049,133.133 780.715,131.4 C782.449,129.6 784.582,128.7 787.115,128.7 C789.649,128.7 791.749,129.6 793.415,131.4 C795.149,133.133 796.015,135.333 796.015,138 C796.015,140.6 795.149,142.8 793.415,144.6 C791.749,146.333 789.649,147.2 787.115,147.2 L787.115,147.2 Z M821.348,147.2 C818.281,147.2 815.648,146.733 813.448,145.8 C811.315,144.867 809.548,143.567 808.148,141.9 C806.815,140.233 805.815,138.233 805.148,135.9 C804.548,133.5 804.248,130.867 804.248,128 L804.248,107.9 L797.448,107.9 L797.448,97 L805.048,96.4 L806.748,83.2 L818.948,83.2 L818.948,96.4 L830.848,96.4 L830.848,107.9 L818.948,107.9 L818.948,127.8 C818.948,130.6 819.515,132.633 820.648,133.9 C821.848,135.1 823.415,135.7 825.348,135.7 C826.148,135.7 826.948,135.6 827.748,135.4 C828.615,135.2 829.381,134.967 830.048,134.7 L832.348,145.4 C831.015,145.8 829.448,146.2 827.648,146.6 C825.848,147 823.748,147.2 821.348,147.2 L821.348,147.2 Z M860.971,147.2 C857.438,147.2 854.138,146.633 851.071,145.5 C848.005,144.3 845.338,142.6 843.071,140.4 C840.805,138.133 839.038,135.4 837.771,132.2 C836.505,129 835.871,125.333 835.871,121.2 C835.871,117.2 836.538,113.6 837.871,110.4 C839.205,107.133 840.938,104.4 843.071,102.2 C845.271,99.933 847.771,98.2 850.571,97 C853.371,95.8 856.271,95.2 859.271,95.2 C862.805,95.2 865.871,95.8 868.471,97 C871.138,98.2 873.338,99.867 875.071,102 C876.871,104.133 878.205,106.667 879.071,109.6 C879.938,112.467 880.371,115.6 880.371,119 C880.371,120.333 880.305,121.6 880.171,122.8 C880.038,124 879.905,124.9 879.771,125.5 L850.071,125.5 C850.738,129.1 852.205,131.767 854.471,133.5 C856.805,135.167 859.638,136 862.971,136 C866.505,136 870.071,134.9 873.671,132.7 L878.571,141.6 C876.038,143.333 873.205,144.7 870.071,145.7 C867.005,146.7 863.971,147.2 860.971,147.2 L860.971,147.2 Z M849.971,115.8 L867.871,115.8 C867.871,113 867.238,110.733 865.971,109 C864.705,107.267 862.571,106.4 859.571,106.4 C857.238,106.4 855.171,107.167 853.371,108.7 C851.638,110.233 850.505,112.6 849.971,115.8 L849.971,115.8 Z M912.129,147.2 C908.663,147.2 905.429,146.633 902.429,145.5 C899.496,144.3 896.929,142.6 894.729,140.4 C892.529,138.2 890.796,135.5 889.529,132.3 C888.263,129.033 887.629,125.333 887.629,121.2 C887.629,117.067 888.329,113.4 889.729,110.2 C891.129,106.933 892.996,104.2 895.329,102 C897.729,99.8 900.496,98.133 903.629,97 C906.763,95.8 910.029,95.2 913.429,95.2 C916.496,95.2 919.196,95.7 921.529,96.7 C923.929,97.7 926.063,98.967 927.929,100.5 L921.029,110 C918.696,108.067 916.463,107.1 914.329,107.1 C910.729,107.1 907.896,108.367 905.829,110.9 C903.763,113.433 902.729,116.867 902.729,121.2 C902.729,125.533 903.763,128.967 905.829,131.5 C907.963,134.033 910.629,135.3 913.829,135.3 C915.429,135.3 916.963,134.967 918.429,134.3 C919.963,133.567 921.396,132.7 922.729,131.7 L928.529,141.3 C926.063,143.433 923.396,144.967 920.529,145.9 C917.663,146.767 914.863,147.2 912.129,147.2 L912.129,147.2 Z M937.209,146 L937.209,75.9 L951.909,75.9 L951.909,93.1 L951.209,102 C953.076,100.333 955.242,98.8 957.709,97.4 C960.176,95.933 963.11,95.2 966.51,95.2 C971.91,95.2 975.81,96.967 978.21,100.5 C980.68,104.033 981.91,108.933 981.91,115.2 L981.91,146 L967.21,146 L967.21,117.1 C967.21,113.5 966.71,111.033 965.71,109.7 C964.78,108.367 963.24,107.7 961.109,107.7 C959.242,107.7 957.642,108.133 956.309,109 C954.976,109.8 953.509,110.967 951.909,112.5 L951.909,146 L937.209,146 L937.209,146 Z" id="Text" fill="#FFFFFF"></path>
        <mask id="mask-2" fill="white">
            <use xlink:href="#path-1"></use>
        </mask>
        <use id="Icon" fill="#903068" xlink:href="#path-1"></use>
    </g>
</svg>