<?xml version="1.0" encoding="UTF-8" standalone="no"?>
<svg xmlns:rdf="http://www.w3.org/1999/02/22-rdf-syntax-ns#" xmlns="http://www.w3.org/2000/svg" height="24" width="24" version="1.1" xmlns:cc="http://creativecommons.org/ns#" xmlns:dc="http://purl.org/dc/elements/1.1/" viewBox="0 0 24 24">
 <metadata>
  <rdf:RDF>
   <cc:Work rdf:about="">
    <dc:format>image/svg+xml</dc:format>
    <dc:type rdf:resource="http://purl.org/dc/dcmitype/StillImage"/>
    <dc:title/>
   </cc:Work>
  </rdf:RDF>
 </metadata>
 <path d="m10.782 16.224h1.8102v1.8102h-1.81v-1.81m1.207-10.258c3.2281 0.13275 4.634 3.3911 2.7153 5.8348-0.50081 0.60339-1.3094 1.0016-1.7076 1.5085-0.40427 0.50081-0.40427 1.1042-0.40427 1.7076h-1.8102c0-1.0077 0-1.8584 0.40427-2.4618 0.39824-0.60339 1.2068-0.95939 1.7076-1.3576 1.46-1.3521 1.098-3.2648-0.905-3.4217a1.8102 1.8102 0 0 0 -1.81 1.8101h-1.8106a3.6203 3.6203 0 0 1 3.6206 -3.6203z" fill="#222"/>
</svg>
