<svg width="1384" height="405" viewBox="0 0 1384 405" version="1.1" xmlns="http://www.w3.org/2000/svg" xmlns:xlink="http://www.w3.org/1999/xlink">
<title>event_logo</title>
<desc>Created using Figma</desc>
<g id="Canvas" transform="translate(-3977 -986)">
<g id="event_logo">
<use xlink:href="#path0_fill" transform="translate(3977 986)" fill="#FFFFFF"/>
<use xlink:href="#path1_fill" transform="translate(3977 986)" fill="#FFFFFF"/>
<use xlink:href="#path2_fill" transform="translate(3977 986)" fill="#FFFFFF"/>
<use xlink:href="#path3_fill" transform="translate(3977 986)" fill="#FFFFFF"/>
<use xlink:href="#path4_fill" transform="translate(3977 986)" fill="#FFFFFF"/>
<use xlink:href="#path5_fill" transform="translate(3977 986)" fill="#FFFFFF"/>
<use xlink:href="#path6_fill" transform="translate(3977 986)" fill="#FFFFFF"/>
<use xlink:href="#path7_fill" transform="translate(3977 986)" fill="#FFFFFF"/>
<use xlink:href="#path8_fill" transform="translate(3977 986)" fill="#FFFFFF"/>
<use xlink:href="#path9_fill" transform="translate(3977 986)" fill="#FFFFFF"/>
<use xlink:href="#path10_fill" transform="translate(3977 986)" fill="#FFFFFF"/>
<use xlink:href="#path11_fill" transform="translate(3977 986)" fill="#FFFFFF"/>
<use xlink:href="#path12_fill" transform="translate(3977 986)" fill="#FFFFFF"/>
<use xlink:href="#path13_fill" transform="translate(3977 986)" fill="#FFFFFF"/>
<use xlink:href="#path14_fill" transform="translate(3977 986)" fill="#FFFFFF"/>
<use xlink:href="#path15_fill" transform="translate(3977 986)" fill="#FFFFFF"/>
<use xlink:href="#path16_fill" transform="translate(3977 986)" fill="#FFFFFF"/>
<use xlink:href="#path17_fill" transform="translate(3977 986)" fill="#FFFFFF"/>
<use xlink:href="#path18_fill" transform="translate(3977 986)" fill="#FFFFFF"/>
<use xlink:href="#path19_fill" transform="translate(3977 986)" fill="#FFFFFF"/>
<use xlink:href="#path20_fill" transform="translate(3977 986)" fill="#FFFFFF"/>
<use xlink:href="#path21_fill" transform="translate(3977 986)" fill="#FFFFFF"/>
<use xlink:href="#path22_fill" transform="translate(3977 986)" fill="#FFFFFF"/>
<use xlink:href="#path23_fill" transform="translate(3977 986)" fill="#FFFFFF"/>
<use xlink:href="#path24_fill" transform="translate(3977 986)" fill="#FFFFFF"/>
<use xlink:href="#path25_fill" transform="translate(3977 986)" fill="#FFFFFF"/>
<use xlink:href="#path26_fill" transform="translate(3977 986)" fill="#FFFFFF"/>
<use xlink:href="#path27_fill" transform="translate(3977 986)" fill="#FFFFFF"/>
<use xlink:href="#path28_fill" transform="translate(3977 986)" fill="#FFFFFF"/>
<use xlink:href="#path29_fill" transform="translate(3977 986)" fill="#FFFFFF"/>
<use xlink:href="#path30_fill" transform="translate(3977 986)" fill="#FFFFFF"/>
<use xlink:href="#path31_fill" transform="translate(3977 986)" fill="#FFFFFF"/>
<use xlink:href="#path32_fill" transform="translate(3977 986)" fill="#FFFFFF"/>
<use xlink:href="#path33_fill" transform="translate(3977 986)" fill="#FFFFFF"/>
<use xlink:href="#path34_fill" transform="translate(3977 986)" fill="#FFFFFF"/>
<use xlink:href="#path35_fill" transform="translate(3977 986)" fill="#FFFFFF"/>
<use xlink:href="#path36_fill" transform="translate(3977 986)" fill="#FFFFFF"/>
<use xlink:href="#path37_fill" transform="translate(3977 986)" fill="#FFFFFF"/>
<use xlink:href="#path38_fill" transform="translate(3977 986)" fill="#FFFFFF"/>
<use xlink:href="#path39_fill" transform="translate(3977 986)" fill="#FFFFFF"/>
<use xlink:href="#path40_fill" transform="translate(3977 986)" fill="#FFFFFF"/>
<use xlink:href="#path41_fill" transform="translate(3977 986)" fill="#FFFFFF"/>
<use xlink:href="#path42_fill" transform="translate(3977 986)" fill="#FFFFFF"/>
<use xlink:href="#path43_fill" transform="translate(3977 986)" fill="#FFFFFF"/>
<use xlink:href="#path44_fill" transform="translate(3977 986)" fill="#FFFFFF"/>
<use xlink:href="#path45_fill" transform="translate(3977 986)" fill="#FFFFFF"/>
<use xlink:href="#path46_fill" transform="translate(3977 986)" fill="#FFFFFF"/>
<use xlink:href="#path47_fill" transform="translate(3977 986)" fill="#FFFFFF"/>
<use xlink:href="#path48_fill" transform="translate(3977 986)" fill="#FFFFFF"/>
<use xlink:href="#path49_fill" transform="translate(3977 986)" fill="#FFFFFF"/>
<use xlink:href="#path50_fill" transform="translate(3977 986)" fill="#FFFFFF"/>
<use xlink:href="#path51_fill" transform="translate(3977 986)" fill="#FFFFFF"/>
<use xlink:href="#path52_fill" transform="translate(3977 986)" fill="#FFFFFF"/>
<use xlink:href="#path53_fill" transform="translate(3977 986)" fill="#FFFFFF"/>
<use xlink:href="#path54_fill" transform="translate(3977 986)" fill="#FFFFFF"/>
<use xlink:href="#path55_fill" transform="translate(3977 986)" fill="#FFFFFF"/>
<use xlink:href="#path56_fill" transform="translate(3977 986)" fill="#FFFFFF"/>
<use xlink:href="#path57_fill" transform="translate(3977 986)" fill="#FFFFFF"/>
<use xlink:href="#path58_fill" transform="translate(3977 986)" fill="#FFFFFF"/>
<use xlink:href="#path59_fill" transform="translate(3977 986)" fill="#FFFFFF"/>
<use xlink:href="#path60_fill" transform="translate(3977 986)" fill="#FFFFFF"/>
<use xlink:href="#path61_fill" transform="translate(3977 986)" fill="#FFFFFF"/>
<use xlink:href="#path62_fill" transform="translate(3977 986)" fill="#FFFFFF"/>
<use xlink:href="#path63_fill" transform="translate(3977 986)" fill="#FFFFFF"/>
<use xlink:href="#path64_fill" transform="translate(3977 986)" fill="#FFFFFF"/>
<use xlink:href="#path65_fill" transform="translate(3977 986)" fill="#FFFFFF"/>
<use xlink:href="#path66_fill" transform="translate(3977 986)" fill="#FFFFFF"/>
<use xlink:href="#path67_fill" transform="translate(3977 986)" fill="#FFFFFF"/>
<use xlink:href="#path68_fill" transform="translate(3977 986)" fill="#FFFFFF"/>
<use xlink:href="#path69_fill" transform="translate(3977 986)" fill="#FFFFFF"/>
<use xlink:href="#path70_fill" transform="translate(3977 986)" fill="#FFFFFF"/>
<use xlink:href="#path71_fill" transform="translate(3977 986)" fill="#FFFFFF"/>
<use xlink:href="#path72_fill" transform="translate(3977 986)" fill="#FFFFFF"/>
<use xlink:href="#path73_fill" transform="translate(3977 986)" fill="#FFFFFF"/>
<use xlink:href="#path74_fill" transform="translate(3977 986)" fill="#FFFFFF"/>
<use xlink:href="#path75_fill" transform="translate(3977 986)" fill="#FFFFFF"/>
<use xlink:href="#path76_fill" transform="translate(3977 986)" fill="#FFFFFF"/>
<use xlink:href="#path77_fill" transform="translate(3977 986)" fill="#FFFFFF"/>
<use xlink:href="#path78_fill" transform="translate(3977 986)" fill="#FFFFFF"/>
<use xlink:href="#path79_fill" transform="translate(3977 986)" fill="#FFFFFF"/>
<use xlink:href="#path80_fill" transform="translate(3977 986)" fill="#FFFFFF"/>
<use xlink:href="#path81_fill" transform="translate(3977 986)" fill="#FFFFFF"/>
<use xlink:href="#path82_fill" transform="translate(3977 986)" fill="#FFFFFF"/>
<use xlink:href="#path83_fill" transform="translate(3977 986)" fill="#FFFFFF"/>
<use xlink:href="#path84_fill" transform="translate(3977 986)" fill="#FFFFFF"/>
<use xlink:href="#path85_fill" transform="translate(3977 986)" fill="#FFFFFF"/>
<use xlink:href="#path86_fill" transform="translate(3977 986)" fill="#FFFFFF"/>
<use xlink:href="#path87_fill" transform="translate(3977 986)" fill="#FFFFFF"/>
<use xlink:href="#path88_fill" transform="translate(3977 986)" fill="#FFFFFF"/>
<use xlink:href="#path89_fill" transform="translate(3977 986)" fill="#FFFFFF"/>
<use xlink:href="#path90_fill" transform="translate(3977 986)" fill="#FFFFFF"/>
<use xlink:href="#path91_fill" transform="translate(3977 986)" fill="#FFFFFF"/>
<use xlink:href="#path92_fill" transform="translate(3977 986)" fill="#FFFFFF"/>
<use xlink:href="#path93_fill" transform="translate(3977 986)" fill="#FFFFFF"/>
<use xlink:href="#path94_fill" transform="translate(3977 986)" fill="#FFFFFF"/>
<use xlink:href="#path95_fill" transform="translate(3977 986)" fill="#FFFFFF"/>
<use xlink:href="#path96_fill" transform="translate(3977 986)" fill="#FFFFFF"/>
<use xlink:href="#path97_fill" transform="translate(3977 986)" fill="#FFFFFF"/>
<use xlink:href="#path98_fill" transform="translate(3977 986)" fill="#FFFFFF"/>
<use xlink:href="#path99_fill" transform="translate(3977 986)" fill="#FFFFFF"/>
<use xlink:href="#path100_fill" transform="translate(3977 986)" fill="#FFFFFF"/>
<use xlink:href="#path101_fill" transform="translate(3977 986)" fill="#FFFFFF"/>
<use xlink:href="#path102_fill" transform="translate(3977 986)" fill="#FFFFFF"/>
<use xlink:href="#path103_fill" transform="translate(3977 986)" fill="#FFFFFF"/>
<use xlink:href="#path104_fill" transform="translate(3977 986)" fill="#FFFFFF"/>
</g>
</g>
<defs>
<path id="path0_fill" d="M 0.96 305.688L 0.96 100.688L 38.8433 100.688L 38.8433 305.688L 0.96 305.688Z"/>
<path id="path1_fill" d="M 34.2417 100.688L 110.373 100.688L 110.373 305.688L 34.2417 305.688L 34.2417 100.688ZM 98.7162 264.507L 98.7162 242.374L 64.4755 215.887L 98.5341 189.582L 98.5341 167.449L 40.6163 212.44L 40.6163 220.423L 98.7162 264.507Z"/>
<path id="path2_fill" d="M 105.899 305.688L 105.899 100.688L 143.782 100.688L 143.782 305.688L 105.899 305.688Z"/>
<path id="path3_fill" d="M 139.181 305.688L 139.181 100.688L 269.951 100.688L 269.951 305.688L 139.181 305.688ZM 263.577 207.542C 263.577 190.126 258.416 176.036 248.095 165.272C 237.896 154.508 222.658 149.126 202.38 149.126L 148.105 149.126L 148.105 169.807L 160.854 169.807L 160.854 246.365L 148.105 246.365L 148.105 267.046L 203.837 267.046C 222.536 267.046 237.167 261.604 247.731 250.719C 258.295 239.834 263.577 225.442 263.577 207.542ZM 237.35 207.905C 237.35 221.451 234.253 231.247 228.061 237.294C 221.99 243.341 213.248 246.365 201.834 246.365L 185.26 246.365L 185.26 169.807L 201.834 169.807C 225.511 169.807 237.35 182.507 237.35 207.905Z"/>
<path id="path4_fill" d="M 266.353 305.688L 266.353 100.688L 378.181 100.688L 378.181 305.688L 266.353 305.688ZM 275.277 267.046L 366.707 267.046L 370.35 232.577L 349.587 230.763L 345.944 246.365L 312.432 246.365L 312.432 218.064L 362.336 218.064L 362.336 197.564L 312.432 197.564L 312.432 169.807L 344.851 169.807L 348.494 185.409L 369.257 183.595L 365.614 149.126L 275.277 149.126L 275.277 169.807L 288.026 169.807L 288.026 246.365L 275.277 246.365L 275.277 267.046Z"/>
<path id="path5_fill" d="M 423.487 169.807L 423.487 149.126L 374.493 149.126L 374.493 100.688C 374.493 100.688 449.31 100.688 497.25 100.688C 497.25 119.604 497.25 149.126 497.25 149.126L 450.624 149.126L 450.624 169.807L 461.734 169.807L 438.057 229.493L 436.964 229.493L 412.741 169.807L 423.487 169.807ZM 497.25 305.688L 374.493 305.688L 374.493 169.807L 385.603 169.807L 427.493 267.046L 444.432 267.046L 486.504 169.807L 497.25 169.807L 497.25 305.688Z"/>
<path id="path6_fill" d="M 497.25 305.688C 497.25 305.688 497.25 180.745 497.25 100.688C 551.114 100.688 651.459 100.688 651.459 100.688L 651.459 305.688L 497.25 305.688ZM 592.448 267.046L 642.353 267.046L 642.353 246.365L 629.603 246.365L 629.603 169.807L 642.353 169.807L 642.353 149.126L 592.448 149.126L 592.448 169.807L 605.198 169.807L 605.198 197.02L 555.112 197.02L 555.112 169.807L 567.861 169.807L 567.861 149.126L 517.957 149.126L 517.957 169.807L 530.706 169.807L 530.706 246.365L 517.957 246.365L 517.957 267.046L 567.861 267.046L 567.861 246.365L 555.112 246.365L 555.112 217.52L 605.198 217.52L 605.198 246.365L 592.448 246.365L 592.448 267.046Z"/>
<path id="path7_fill" d="M 647.765 305.688L 647.765 100.688L 759.594 100.688L 759.594 305.688L 647.765 305.688ZM 656.69 267.046L 748.12 267.046L 751.762 232.577L 730.999 230.763L 727.357 246.365L 693.845 246.365L 693.845 218.064L 743.749 218.064L 743.749 197.564L 693.845 197.564L 693.845 169.807L 726.264 169.807L 729.907 185.409L 750.67 183.595L 747.027 149.126L 656.69 149.126L 656.69 169.807L 669.439 169.807L 669.439 246.365L 656.69 246.365L 656.69 267.046Z"/>
<path id="path8_fill" d="M 755.906 100.688L 878.662 100.688L 878.662 246.365L 867.37 246.365L 824.752 149.126L 784.136 149.126L 784.136 169.807L 800.528 169.807L 766.652 246.365L 755.906 246.365L 755.906 100.688ZM 817.648 183.777L 830.033 216.976L 803.26 216.976L 816.556 183.777L 817.648 183.777ZM 878.662 305.688L 755.906 305.688L 755.906 267.046L 802.531 267.046L 802.531 246.365L 791.421 246.365L 796.339 234.392L 836.59 234.392L 840.961 246.365L 831.49 246.365L 831.49 267.046L 878.662 267.046L 878.662 305.688Z"/>
<path id="path9_fill" d="M 924.067 169.807L 924.067 149.126L 875.074 149.126L 875.074 100.688L 997.831 100.688L 997.831 149.126L 951.205 149.126L 951.205 169.807L 962.315 169.807L 938.638 229.493L 937.545 229.493L 913.322 169.807L 924.067 169.807ZM 997.831 305.688L 875.074 305.688L 875.074 169.807L 886.184 169.807L 928.074 267.046L 945.012 267.046L 987.085 169.807L 997.831 169.807L 997.831 305.688Z"/>
<path id="path10_fill" d="M 994.242 305.688C 994.242 225.631 994.242 180.745 994.242 100.688L 1106.07 100.688L 1106.07 305.688L 994.242 305.688ZM 1003.17 267.046L 1094.6 267.046L 1098.24 232.577L 1077.48 230.763L 1073.83 246.365L 1040.32 246.365L 1040.32 218.064L 1090.23 218.064L 1090.23 197.564L 1040.32 197.564L 1040.32 169.807L 1072.74 169.807L 1076.38 185.409L 1097.15 183.595L 1093.5 149.126L 1003.17 149.126L 1003.17 169.807L 1015.92 169.807L 1015.92 246.365L 1003.17 246.365L 1003.17 267.046Z"/>
<path id="path11_fill" d="M 1102.38 305.688L 1102.38 100.688L 1244.44 100.688L 1244.44 305.688L 1102.38 305.688ZM 1224.96 169.807L 1237.71 169.807L 1237.71 149.126L 1185.07 149.126L 1185.07 169.807L 1202.19 169.807L 1202.19 219.153L 1201.46 219.153L 1141.72 149.126L 1109.49 149.126L 1109.49 169.807L 1124.24 169.807L 1124.24 246.365L 1111.49 246.365L 1111.49 267.046L 1163.4 267.046L 1163.4 246.365L 1147 246.365L 1147 192.303L 1147.73 192.303L 1211.3 267.228L 1224.96 267.046L 1224.96 169.807Z"/>
<path id="path12_fill" d="M 1239.85 305.688L 1239.85 100.688L 1277.73 100.688L 1277.73 305.688L 1239.85 305.688Z"/>
<path id="path13_fill" d="M 1273.13 100.688L 1348.72 100.688L 1348.72 305.688L 1273.13 305.688L 1273.13 100.688ZM 1342.52 220.423L 1342.52 212.44L 1284.6 167.449L 1284.6 189.582L 1318.66 215.887L 1284.42 242.374L 1284.42 264.507L 1342.52 220.423Z"/>
<path id="path14_fill" d="M 1344.08 305.688L 1344.08 100.688L 1381.96 100.688L 1381.96 305.688L 1344.08 305.688Z"/>
<path id="path15_fill" d="M 0 404.32L 0 332L 13.312 332L 13.312 404.32L 0 404.32Z"/>
<path id="path16_fill" d="M 11.695 404.32L 11.695 332L 52.783 332L 52.783 404.32L 11.695 404.32ZM 50.607 378.336C 50.607 375.563 49.839 373.216 48.303 371.296C 46.8097 369.376 44.5697 368.203 41.583 367.776L 41.583 367.52C 43.9723 367.136 45.8283 366.133 47.151 364.512C 48.4737 362.891 49.135 360.992 49.135 358.816C 49.135 355.872 47.9617 353.525 45.615 351.776C 43.311 349.984 40.2603 349.088 36.463 349.088L 14.831 349.088L 14.831 356.384L 19.311 356.384L 19.311 383.392L 14.831 383.392L 14.831 390.688L 36.719 390.688C 41.4977 390.688 44.9963 389.472 47.215 387.04C 49.4763 384.565 50.607 381.664 50.607 378.336ZM 39.919 361.056C 39.919 362.464 39.471 363.659 38.575 364.64C 37.679 365.621 36.015 366.112 33.583 366.112L 27.887 366.112L 27.887 356.384L 34.223 356.384C 35.759 356.384 37.0817 356.704 38.191 357.344C 39.343 357.941 39.919 359.179 39.919 361.056ZM 41.391 378.016C 41.391 381.6 39.087 383.392 34.479 383.392L 27.887 383.392L 27.887 372.768L 35.055 372.768C 39.279 372.768 41.391 374.517 41.391 378.016Z"/>
<path id="path17_fill" d="M 51.5075 332L 94.6435 332L 94.6435 383.392L 90.6755 383.392L 75.6995 349.088L 61.4275 349.088L 61.4275 356.384L 67.1875 356.384L 55.2835 383.392L 51.5075 383.392L 51.5075 332ZM 73.2035 361.312L 77.5555 373.024L 68.1475 373.024L 72.8195 361.312L 73.2035 361.312ZM 94.6435 404.32L 51.5075 404.32L 51.5075 390.688L 67.8915 390.688L 67.8915 383.392L 63.9875 383.392L 65.7155 379.168L 79.8595 379.168L 81.3955 383.392L 78.0675 383.392L 78.0675 390.688L 94.6435 390.688L 94.6435 404.32Z"/>
<path id="path18_fill" d="M 93.3825 404.32L 93.3825 332L 135.814 332L 135.814 404.32L 93.3825 404.32ZM 132.038 386.272L 132.87 376.48L 125.895 375.84L 124.998 382.048C 123.078 383.2 120.433 383.776 117.062 383.776C 113.478 383.776 110.534 382.688 108.23 380.512C 105.926 378.336 104.774 374.837 104.774 370.016C 104.774 365.451 105.82 361.973 107.91 359.584C 110.044 357.195 112.903 356 116.487 356C 117.895 356 119.388 356.192 120.966 356.576C 122.545 356.96 123.889 357.515 124.998 358.24L 125.895 363.744L 132.87 363.104L 131.846 353.44C 130.524 352.203 128.582 351.072 126.022 350.048C 123.462 348.981 120.412 348.448 116.87 348.448C 111.622 348.448 107.441 349.621 104.326 351.968C 101.212 354.315 98.9718 357.195 97.6065 360.608C 96.2412 364.021 95.5585 367.349 95.5585 370.592C 95.5585 376.779 97.5638 381.792 101.575 385.632C 105.585 389.429 110.556 391.328 116.487 391.328C 119.473 391.328 122.46 390.859 125.447 389.92C 128.476 388.981 130.673 387.765 132.038 386.272Z"/>
<path id="path19_fill" d="M 134.508 404.32L 134.508 332L 178.924 332L 178.924 404.32L 134.508 404.32ZM 159.596 390.688L 177.708 390.688L 177.708 383.392L 173.419 383.392L 162.411 368.864L 172.331 356.384L 177.003 356.384L 177.003 349.088L 159.723 349.088L 159.723 356.384L 163.307 356.384L 155.947 366.176L 150.699 366.176L 150.699 356.384L 154.411 356.384L 154.411 349.088L 137.643 349.088L 137.643 356.384L 142.124 356.384L 142.124 383.392L 137.643 383.392L 137.643 390.688L 154.219 390.688L 154.219 383.392L 150.699 383.392L 150.699 373.152L 155.82 373.152L 163.436 383.392L 159.596 383.392L 159.596 390.688Z"/>
<path id="path20_fill" d="M 177.633 404.32L 177.633 332L 216.928 332L 216.928 404.32L 177.633 404.32ZM 180.768 390.688L 212.896 390.688L 214.176 378.528L 206.88 377.888L 205.6 383.392L 193.824 383.392L 193.824 373.408L 211.361 373.408L 211.361 366.176L 193.824 366.176L 193.824 356.384L 205.217 356.384L 206.497 361.888L 213.792 361.248L 212.512 349.088L 180.768 349.088L 180.768 356.384L 185.249 356.384L 185.249 383.392L 180.768 383.392L 180.768 390.688Z"/>
<path id="path21_fill" d="M 215.633 404.32L 215.633 332L 265.552 332L 265.552 404.32L 215.633 404.32ZM 258.704 356.384L 263.185 356.384L 263.185 349.088L 244.689 349.088L 244.689 356.384L 250.704 356.384L 250.704 373.792L 250.449 373.792L 229.456 349.088L 218.128 349.088L 218.128 356.384L 223.312 356.384L 223.312 383.392L 218.833 383.392L 218.833 390.688L 237.072 390.688L 237.072 383.392L 231.312 383.392L 231.312 364.32L 231.568 364.32L 253.904 390.752L 258.704 390.688L 258.704 356.384Z"/>
<path id="path22_fill" d="M 264.258 404.32L 264.258 332L 310.21 332L 310.21 404.32L 264.258 404.32ZM 307.97 369.696C 307.97 363.552 306.156 358.581 302.53 354.784C 298.946 350.987 293.591 349.088 286.466 349.088L 267.393 349.088L 267.393 356.384L 271.874 356.384L 271.874 383.392L 267.393 383.392L 267.393 390.688L 286.978 390.688C 293.548 390.688 298.689 388.768 302.401 384.928C 306.113 381.088 307.97 376.011 307.97 369.696ZM 298.754 369.824C 298.754 374.603 297.666 378.059 295.49 380.192C 293.356 382.325 290.284 383.392 286.273 383.392L 280.449 383.392L 280.449 356.384L 286.273 356.384C 294.593 356.384 298.754 360.864 298.754 369.824Z"/>
<path id="path23_fill" d="M 308.625 404.32L 308.625 332L 321.937 332L 321.937 404.32L 308.625 404.32Z"/>
<path id="path24_fill" d="M 0 72.32L 0 0L 13.312 0L 13.312 72.32L 0 72.32Z"/>
<path id="path25_fill" d="M 11.695 72.32L 11.695 0L 70.575 0L 70.575 72.32L 11.695 72.32ZM 62.831 24.384L 67.951 24.384L 67.951 17.088L 55.535 17.088L 41.647 42.88L 41.391 42.88L 26.607 17.088L 14.319 17.088L 14.319 24.384L 19.439 24.384L 19.439 51.392L 14.959 51.392L 14.959 58.688L 31.407 58.688L 31.407 51.392L 27.439 51.392L 27.439 34.752L 27.695 34.752L 39.471 55.296L 43.055 55.296L 53.999 35.52L 54.255 35.52L 54.255 51.392L 50.607 51.392L 50.607 58.688L 67.311 58.688L 67.311 51.392L 62.831 51.392L 62.831 24.384Z"/>
<path id="path26_fill" d="M 69.32 72.32L 69.32 0L 116.168 0L 116.168 72.32L 69.32 72.32ZM 113.992 37.824C 113.992 31.9787 112.115 26.9653 108.36 22.784C 104.648 18.56 99.464 16.448 92.808 16.448C 86.28 16.448 81.096 18.5173 77.256 22.656C 73.416 26.7947 71.496 31.8933 71.496 37.952C 71.496 43.7547 73.3093 48.768 76.936 52.992C 80.5627 57.216 85.768 59.328 92.552 59.328C 99.2933 59.328 104.541 57.216 108.296 52.992C 112.093 48.768 113.992 43.712 113.992 37.824ZM 104.712 38.08C 104.712 42.1333 103.773 45.44 101.896 48C 100.019 50.5173 97.0533 51.776 93 51.776C 88.6053 51.776 85.4693 50.3893 83.592 47.616C 81.7147 44.8427 80.776 41.5573 80.776 37.76C 80.776 33.8347 81.736 30.5707 83.656 27.968C 85.576 25.3227 88.6053 24 92.744 24C 96.6267 24 99.592 25.2373 101.64 27.712C 103.688 30.1867 104.712 33.6427 104.712 38.08Z"/>
<path id="path27_fill" d="M 132.098 24.384L 132.098 17.088L 114.882 17.088L 114.882 0L 158.018 0L 158.018 17.088L 141.635 17.088L 141.635 24.384L 145.538 24.384L 137.219 45.44L 136.835 45.44L 128.322 24.384L 132.098 24.384ZM 158.018 72.32L 114.882 72.32L 114.882 24.384L 118.786 24.384L 133.507 58.688L 139.458 58.688L 154.243 24.384L 158.018 24.384L 158.018 72.32Z"/>
<path id="path28_fill" d="M 156.758 72.32L 156.758 0L 180.63 0L 180.63 72.32L 156.758 72.32ZM 159.893 58.688L 177.43 58.688L 177.43 51.392L 172.949 51.392L 172.949 24.384L 177.43 24.384L 177.43 17.088L 159.893 17.088L 159.893 24.384L 164.374 24.384L 164.374 51.392L 159.893 51.392L 159.893 58.688Z"/>
<path id="path29_fill" d="M 179.32 72.32L 179.32 0L 229.24 0L 229.24 72.32L 179.32 72.32ZM 222.392 24.384L 226.872 24.384L 226.872 17.088L 208.376 17.088L 208.376 24.384L 214.392 24.384L 214.392 41.792L 214.136 41.792L 193.144 17.088L 181.816 17.088L 181.816 24.384L 187 24.384L 187 51.392L 182.52 51.392L 182.52 58.688L 200.76 58.688L 200.76 51.392L 195 51.392L 195 32.32L 195.256 32.32L 217.592 58.752L 222.392 58.688L 222.392 24.384Z"/>
<path id="path30_fill" d="M 227.945 72.32L 227.945 0L 272.873 0L 272.873 72.32L 227.945 72.32ZM 268.649 42.944L 270.697 42.944L 270.697 35.712L 251.881 35.712L 251.881 42.944L 260.009 42.944L 260.009 43.2C 260.009 45.9307 259.177 48.0427 257.513 49.536C 255.849 51.0293 253.609 51.776 250.793 51.776C 247.422 51.776 244.67 50.6453 242.537 48.384C 240.446 46.1227 239.401 42.688 239.401 38.08C 239.401 33.3013 240.51 29.76 242.729 27.456C 244.99 25.152 247.828 24 251.241 24C 252.649 24 254.185 24.192 255.849 24.576C 257.556 24.96 258.964 25.5147 260.073 26.24L 261.225 31.104L 268.137 30.464L 266.985 21.44C 265.62 20.0747 263.55 18.9013 260.777 17.92C 258.046 16.9387 254.996 16.448 251.625 16.448C 244.585 16.448 239.252 18.5813 235.625 22.848C 231.998 27.1147 230.185 32.2347 230.185 38.208C 230.185 44.1813 231.892 49.1947 235.305 53.248C 238.761 57.3013 243.412 59.328 249.257 59.328C 251.945 59.328 254.27 58.88 256.233 57.984C 258.238 57.0453 259.881 55.8293 261.161 54.336L 261.993 58.688L 268.649 58.688L 268.649 42.944Z"/>
<path id="path31_fill" d="M 271.25 72.32L 271.25 0L 284.562 0L 284.562 72.32L 271.25 72.32Z"/>
<path id="path32_fill" d="M 282.945 72.32L 282.945 0L 319.873 0L 319.873 72.32L 282.945 72.32ZM 317.249 46.08C 317.249 42.5387 316.374 39.936 314.625 38.272C 312.918 36.5653 310.913 35.4133 308.609 34.816C 306.348 34.176 304.364 33.6853 302.657 33.344C 300.78 32.9173 299.116 32.3627 297.665 31.68C 296.214 30.9973 295.489 29.7813 295.489 28.032C 295.489 26.5387 296.044 25.4933 297.153 24.896C 298.305 24.2987 299.734 24 301.441 24C 302.465 24 303.51 24.128 304.577 24.384C 305.686 24.64 306.774 25.1307 307.841 25.856L 308.417 30.72L 315.265 30.08L 314.881 21.056C 313.558 19.648 311.66 18.5387 309.185 17.728C 306.71 16.8747 304.108 16.448 301.377 16.448C 297.622 16.448 294.166 17.408 291.009 19.328C 287.852 21.2053 286.273 24.4693 286.273 29.12C 286.273 32.1067 286.956 34.368 288.321 35.904C 289.686 37.3973 291.372 38.4853 293.377 39.168C 295.425 39.808 297.452 40.2987 299.457 40.64C 301.761 41.0667 303.766 41.6853 305.473 42.496C 307.18 43.264 308.033 44.8 308.033 47.104C 308.033 49.1947 307.308 50.5387 305.857 51.136C 304.406 51.6907 302.55 51.968 300.289 51.968C 299.564 51.968 298.689 51.904 297.665 51.776C 296.641 51.6053 295.404 51.136 293.953 50.368L 294.017 45.312L 287.169 44.672L 285.889 54.976C 287.51 56.4267 289.708 57.5147 292.481 58.24C 295.297 58.9653 298.113 59.328 300.929 59.328C 306.006 59.328 309.996 58.1973 312.897 55.936C 315.798 53.6747 317.249 50.3893 317.249 46.08Z"/>
<path id="path33_fill" d="M 318.57 72.32L 318.57 0L 361.578 0L 361.578 72.32L 318.57 72.32ZM 352.17 31.808L 359.466 31.168L 358.186 17.088L 321.834 17.088L 320.554 31.168L 327.85 31.808L 329.13 24.384L 335.722 24.384L 335.722 51.392L 329.322 51.392L 329.322 58.688L 351.082 58.688L 351.082 51.392L 344.298 51.392L 344.298 24.384L 350.89 24.384L 352.17 31.808Z"/>
<path id="path34_fill" d="M 360.32 0L 403.456 0L 403.456 51.392L 399.488 51.392L 384.512 17.088L 370.24 17.088L 370.24 24.384L 376 24.384L 364.096 51.392L 360.32 51.392L 360.32 0ZM 382.016 29.312L 386.368 41.024L 376.96 41.024L 381.632 29.312L 382.016 29.312ZM 403.456 72.32L 360.32 72.32L 360.32 58.688L 376.704 58.688L 376.704 51.392L 372.8 51.392L 374.528 47.168L 388.672 47.168L 390.208 51.392L 386.88 51.392L 386.88 58.688L 403.456 58.688L 403.456 72.32Z"/>
<path id="path35_fill" d="M 402.195 72.32L 402.195 0L 445.203 0L 445.203 72.32L 402.195 72.32ZM 435.795 31.808L 443.091 31.168L 441.811 17.088L 405.459 17.088L 404.179 31.168L 411.475 31.808L 412.755 24.384L 419.347 24.384L 419.347 51.392L 412.947 51.392L 412.947 58.688L 434.707 58.688L 434.707 51.392L 427.923 51.392L 427.923 24.384L 434.515 24.384L 435.795 31.808Z"/>
<path id="path36_fill" d="M 443.945 72.32L 443.945 0L 467.817 0L 467.817 72.32L 443.945 72.32ZM 447.081 58.688L 464.617 58.688L 464.617 51.392L 460.137 51.392L 460.137 24.384L 464.617 24.384L 464.617 17.088L 447.081 17.088L 447.081 24.384L 451.561 24.384L 451.561 51.392L 447.081 51.392L 447.081 58.688Z"/>
<path id="path37_fill" d="M 466.508 72.32L 466.508 0L 513.356 0L 513.356 72.32L 466.508 72.32ZM 511.18 37.824C 511.18 31.9787 509.302 26.9653 505.548 22.784C 501.836 18.56 496.652 16.448 489.996 16.448C 483.468 16.448 478.284 18.5173 474.444 22.656C 470.604 26.7947 468.684 31.8933 468.684 37.952C 468.684 43.7547 470.497 48.768 474.124 52.992C 477.75 57.216 482.956 59.328 489.74 59.328C 496.481 59.328 501.729 57.216 505.483 52.992C 509.281 48.768 511.18 43.712 511.18 37.824ZM 501.9 38.08C 501.9 42.1333 500.961 45.44 499.083 48C 497.206 50.5173 494.241 51.776 490.188 51.776C 485.793 51.776 482.657 50.3893 480.78 47.616C 478.902 44.8427 477.964 41.5573 477.964 37.76C 477.964 33.8347 478.924 30.5707 480.844 27.968C 482.764 25.3227 485.793 24 489.931 24C 493.814 24 496.78 25.2373 498.828 27.712C 500.876 30.1867 501.9 33.6427 501.9 38.08Z"/>
<path id="path38_fill" d="M 512.07 72.32L 512.07 0L 561.99 0L 561.99 72.32L 512.07 72.32ZM 555.142 24.384L 559.622 24.384L 559.622 17.088L 541.126 17.088L 541.126 24.384L 547.142 24.384L 547.142 41.792L 546.886 41.792L 525.894 17.088L 514.566 17.088L 514.566 24.384L 519.75 24.384L 519.75 51.392L 515.27 51.392L 515.27 58.688L 533.51 58.688L 533.51 51.392L 527.75 51.392L 527.75 32.32L 528.006 32.32L 550.342 58.752L 555.142 58.688L 555.142 24.384Z"/>
<path id="path39_fill" d="M 560.695 72.32L 560.695 0L 576.183 0L 576.183 72.32L 560.695 72.32ZM 565.367 49.152L 561.527 64.128L 569.591 64.128L 573.431 49.152L 565.367 49.152Z"/>
<path id="path40_fill" d="M 574.562 72.32L 574.562 0L 587.875 0L 587.875 72.32L 574.562 72.32Z"/>
<path id="path41_fill" d="M 586.258 72.32L 586.258 0L 625.873 0L 625.873 72.32L 586.258 72.32ZM 624.273 30.656C 624.273 26.4747 622.93 23.168 620.242 20.736C 617.554 18.304 613.628 17.088 608.466 17.088L 589.393 17.088L 589.393 24.384L 593.873 24.384L 593.873 51.392L 589.393 51.392L 589.393 58.688L 608.849 58.688L 608.849 51.392L 602.45 51.392L 602.45 44.736L 608.849 44.736C 612.945 44.736 616.53 43.584 619.602 41.28C 622.716 38.9333 624.273 35.392 624.273 30.656ZM 615.057 30.784C 615.057 32.7893 614.482 34.4107 613.33 35.648C 612.22 36.8853 610.194 37.504 607.25 37.504L 602.45 37.504L 602.45 24.384L 607.378 24.384C 610.236 24.384 612.22 24.9387 613.33 26.048C 614.482 27.1573 615.057 28.736 615.057 30.784Z"/>
<path id="path42_fill" d="M 624.57 72.32L 624.57 0L 661.626 0L 661.626 72.32L 624.57 72.32ZM 627.706 58.688L 658.938 58.688L 660.218 43.968L 652.922 43.328L 651.642 51.392L 640.762 51.392L 640.762 24.384L 646.586 24.384L 646.586 17.088L 627.706 17.088L 627.706 24.384L 632.186 24.384L 632.186 51.392L 627.706 51.392L 627.706 58.688Z"/>
<path id="path43_fill" d="M 660.32 72.32L 660.32 0L 699.296 0L 699.296 72.32L 660.32 72.32ZM 662.496 58.688L 696.16 58.688L 697.44 44.352L 690.144 43.712L 688.864 51.392L 674.656 51.392L 674.656 51.264L 696.096 20.992L 695.968 17.088L 664.864 17.088L 663.584 30.208L 670.88 30.848L 672.16 24.384L 683.424 24.384L 683.424 24.448L 662.304 54.272L 662.496 58.688Z"/>
<path id="path44_fill" d="M 698.008 72.32L 698.008 0L 737.304 0L 737.304 72.32L 698.008 72.32ZM 701.143 58.688L 733.271 58.688L 734.552 46.528L 727.255 45.888L 725.976 51.392L 714.2 51.392L 714.2 41.408L 731.735 41.408L 731.735 34.176L 714.2 34.176L 714.2 24.384L 725.591 24.384L 726.872 29.888L 734.167 29.248L 732.888 17.088L 701.143 17.088L 701.143 24.384L 705.623 24.384L 705.623 51.392L 701.143 51.392L 701.143 58.688Z"/>
<path id="path45_fill" d="M 736.008 72.32L 736.008 0L 785.927 0L 785.927 72.32L 736.008 72.32ZM 761.799 14.848L 770.44 8.064L 768.583 4.672L 760.776 8.512L 752.008 4.672L 750.216 8L 758.919 14.848L 761.799 14.848ZM 779.08 24.384L 783.56 24.384L 783.56 17.088L 765.063 17.088L 765.063 24.384L 771.08 24.384L 771.08 41.792L 770.823 41.792L 749.831 17.088L 738.503 17.088L 738.503 24.384L 743.688 24.384L 743.688 51.392L 739.208 51.392L 739.208 58.688L 757.448 58.688L 757.448 51.392L 751.688 51.392L 751.688 32.32L 751.943 32.32L 774.279 58.752L 779.08 58.688L 779.08 24.384Z"/>
<path id="path46_fill" d="M 784.312 72.32L 784.312 0L 797.625 0L 797.625 72.32L 784.312 72.32Z"/>
<path id="path47_fill" d="M 1232.75 72.32L 1232.75 0L 1246.06 0L 1246.06 72.32L 1232.75 72.32Z"/>
<path id="path48_fill" d="M 1244.44 0L 1280.09 0L 1280.09 72.32L 1244.44 72.32L 1244.44 0ZM 1249.63 27.2L 1248.29 36.992L 1254.88 37.696L 1255.84 32.96C 1256.52 32.6187 1257.37 32.384 1258.4 32.256C 1259.42 32.0853 1260.32 32 1261.08 32C 1262.58 32 1263.88 32.2987 1264.99 32.896C 1266.1 33.4507 1266.65 34.4107 1266.65 35.776C 1266.65 37.5253 1265.74 39.232 1263.9 40.896C 1262.11 42.5173 1259.74 44.224 1256.8 46.016C 1253.85 47.808 1250.7 49.7707 1247.32 51.904L 1248.09 58.688L 1277.15 58.688L 1278.11 48.256L 1271.26 47.616L 1270.81 51.392L 1257.24 51.392C 1260.15 49.856 1263.03 48.32 1265.89 46.784C 1268.74 45.248 1271.11 43.4987 1272.99 41.536C 1274.91 39.5733 1275.87 37.2053 1275.87 34.432C 1275.87 31.9147 1274.84 29.6747 1272.8 27.712C 1270.79 25.7067 1267.27 24.704 1262.24 24.704C 1260.7 24.704 1258.82 24.8747 1256.6 25.216C 1254.43 25.5147 1252.1 26.176 1249.63 27.2Z"/>
<path id="path49_fill" d="M 1278.82 0L 1305.96 0L 1305.96 72.32L 1278.82 72.32L 1278.82 0ZM 1304.23 58.688L 1304.23 51.392L 1297.83 51.392L 1297.83 25.344L 1282.21 25.344L 1282.21 32.64L 1289.25 32.64L 1289.25 51.392L 1282.21 51.392L 1282.21 58.688L 1304.23 58.688Z"/>
<path id="path50_fill" d="M 1304.69 72.32L 1304.69 0L 1320.5 0L 1320.5 72.32L 1304.69 72.32ZM 1307.7 48.256L 1307.7 58.688L 1317.49 58.688L 1317.49 48.256L 1307.7 48.256Z"/>
<path id="path51_fill" d="M 1319.26 0L 1357.02 0L 1357.02 72.32L 1319.26 72.32L 1319.26 0ZM 1348.76 67.008L 1348.76 56.832L 1354.39 56.832L 1355.03 49.728L 1348.76 49.728L 1348.76 25.344L 1333.53 25.344L 1320.86 49.728L 1321.75 56.832L 1340.19 56.832L 1340.19 67.008L 1348.76 67.008ZM 1340.19 49.728L 1329.05 49.728L 1337.75 32.64L 1340.19 32.64L 1340.19 49.728Z"/>
<path id="path52_fill" d="M 1355.76 72.32L 1355.76 0L 1371.57 0L 1371.57 72.32L 1355.76 72.32ZM 1358.77 48.256L 1358.77 58.688L 1368.56 58.688L 1368.56 48.256L 1358.77 48.256Z"/>
<path id="path53_fill" d="M 1370 72.32L 1370 0L 1383.31 0L 1383.31 72.32L 1370 72.32Z"/>
<path id="path54_fill" d="M 0 72.32L 0 0L 13.312 0L 13.312 72.32L 0 72.32Z"/>
<path id="path55_fill" d="M 11.695 72.32L 11.695 0L 70.575 0L 70.575 72.32L 11.695 72.32ZM 62.831 24.384L 67.951 24.384L 67.951 17.088L 55.535 17.088L 41.647 42.88L 41.391 42.88L 26.607 17.088L 14.319 17.088L 14.319 24.384L 19.439 24.384L 19.439 51.392L 14.959 51.392L 14.959 58.688L 31.407 58.688L 31.407 51.392L 27.439 51.392L 27.439 34.752L 27.695 34.752L 39.471 55.296L 43.055 55.296L 53.999 35.52L 54.255 35.52L 54.255 51.392L 50.607 51.392L 50.607 58.688L 67.311 58.688L 67.311 51.392L 62.831 51.392L 62.831 24.384Z"/>
<path id="path56_fill" d="M 69.32 72.32L 69.32 0L 116.168 0L 116.168 72.32L 69.32 72.32ZM 113.992 37.824C 113.992 31.9787 112.115 26.9653 108.36 22.784C 104.648 18.56 99.464 16.448 92.808 16.448C 86.28 16.448 81.096 18.5173 77.256 22.656C 73.416 26.7947 71.496 31.8933 71.496 37.952C 71.496 43.7547 73.3093 48.768 76.936 52.992C 80.5627 57.216 85.768 59.328 92.552 59.328C 99.2933 59.328 104.541 57.216 108.296 52.992C 112.093 48.768 113.992 43.712 113.992 37.824ZM 104.712 38.08C 104.712 42.1333 103.773 45.44 101.896 48C 100.019 50.5173 97.0533 51.776 93 51.776C 88.6053 51.776 85.4693 50.3893 83.592 47.616C 81.7147 44.8427 80.776 41.5573 80.776 37.76C 80.776 33.8347 81.736 30.5707 83.656 27.968C 85.576 25.3227 88.6053 24 92.744 24C 96.6267 24 99.592 25.2373 101.64 27.712C 103.688 30.1867 104.712 33.6427 104.712 38.08Z"/>
<path id="path57_fill" d="M 132.098 24.384L 132.098 17.088L 114.882 17.088L 114.882 0L 158.018 0L 158.018 17.088L 141.635 17.088L 141.635 24.384L 145.538 24.384L 137.219 45.44L 136.835 45.44L 128.322 24.384L 132.098 24.384ZM 158.018 72.32L 114.882 72.32L 114.882 24.384L 118.786 24.384L 133.507 58.688L 139.458 58.688L 154.243 24.384L 158.018 24.384L 158.018 72.32Z"/>
<path id="path58_fill" d="M 156.758 72.32L 156.758 0L 180.63 0L 180.63 72.32L 156.758 72.32ZM 159.893 58.688L 177.43 58.688L 177.43 51.392L 172.949 51.392L 172.949 24.384L 177.43 24.384L 177.43 17.088L 159.893 17.088L 159.893 24.384L 164.374 24.384L 164.374 51.392L 159.893 51.392L 159.893 58.688Z"/>
<path id="path59_fill" d="M 179.32 72.32L 179.32 0L 229.24 0L 229.24 72.32L 179.32 72.32ZM 222.392 24.384L 226.872 24.384L 226.872 17.088L 208.376 17.088L 208.376 24.384L 214.392 24.384L 214.392 41.792L 214.136 41.792L 193.144 17.088L 181.816 17.088L 181.816 24.384L 187 24.384L 187 51.392L 182.52 51.392L 182.52 58.688L 200.76 58.688L 200.76 51.392L 195 51.392L 195 32.32L 195.256 32.32L 217.592 58.752L 222.392 58.688L 222.392 24.384Z"/>
<path id="path60_fill" d="M 227.945 72.32L 227.945 0L 272.873 0L 272.873 72.32L 227.945 72.32ZM 268.649 42.944L 270.697 42.944L 270.697 35.712L 251.881 35.712L 251.881 42.944L 260.009 42.944L 260.009 43.2C 260.009 45.9307 259.177 48.0427 257.513 49.536C 255.849 51.0293 253.609 51.776 250.793 51.776C 247.422 51.776 244.67 50.6453 242.537 48.384C 240.446 46.1227 239.401 42.688 239.401 38.08C 239.401 33.3013 240.51 29.76 242.729 27.456C 244.99 25.152 247.828 24 251.241 24C 252.649 24 254.185 24.192 255.849 24.576C 257.556 24.96 258.964 25.5147 260.073 26.24L 261.225 31.104L 268.137 30.464L 266.985 21.44C 265.62 20.0747 263.55 18.9013 260.777 17.92C 258.046 16.9387 254.996 16.448 251.625 16.448C 244.585 16.448 239.252 18.5813 235.625 22.848C 231.998 27.1147 230.185 32.2347 230.185 38.208C 230.185 44.1813 231.892 49.1947 235.305 53.248C 238.761 57.3013 243.412 59.328 249.257 59.328C 251.945 59.328 254.27 58.88 256.233 57.984C 258.238 57.0453 259.881 55.8293 261.161 54.336L 261.993 58.688L 268.649 58.688L 268.649 42.944Z"/>
<path id="path61_fill" d="M 271.25 72.32L 271.25 0L 284.562 0L 284.562 72.32L 271.25 72.32Z"/>
<path id="path62_fill" d="M 282.945 72.32L 282.945 0L 319.873 0L 319.873 72.32L 282.945 72.32ZM 317.249 46.08C 317.249 42.5387 316.374 39.936 314.625 38.272C 312.918 36.5653 310.913 35.4133 308.609 34.816C 306.348 34.176 304.364 33.6853 302.657 33.344C 300.78 32.9173 299.116 32.3627 297.665 31.68C 296.214 30.9973 295.489 29.7813 295.489 28.032C 295.489 26.5387 296.044 25.4933 297.153 24.896C 298.305 24.2987 299.734 24 301.441 24C 302.465 24 303.51 24.128 304.577 24.384C 305.686 24.64 306.774 25.1307 307.841 25.856L 308.417 30.72L 315.265 30.08L 314.881 21.056C 313.558 19.648 311.66 18.5387 309.185 17.728C 306.71 16.8747 304.108 16.448 301.377 16.448C 297.622 16.448 294.166 17.408 291.009 19.328C 287.852 21.2053 286.273 24.4693 286.273 29.12C 286.273 32.1067 286.956 34.368 288.321 35.904C 289.686 37.3973 291.372 38.4853 293.377 39.168C 295.425 39.808 297.452 40.2987 299.457 40.64C 301.761 41.0667 303.766 41.6853 305.473 42.496C 307.18 43.264 308.033 44.8 308.033 47.104C 308.033 49.1947 307.308 50.5387 305.857 51.136C 304.406 51.6907 302.55 51.968 300.289 51.968C 299.564 51.968 298.689 51.904 297.665 51.776C 296.641 51.6053 295.404 51.136 293.953 50.368L 294.017 45.312L 287.169 44.672L 285.889 54.976C 287.51 56.4267 289.708 57.5147 292.481 58.24C 295.297 58.9653 298.113 59.328 300.929 59.328C 306.006 59.328 309.996 58.1973 312.897 55.936C 315.798 53.6747 317.249 50.3893 317.249 46.08Z"/>
<path id="path63_fill" d="M 318.57 72.32L 318.57 0L 361.578 0L 361.578 72.32L 318.57 72.32ZM 352.17 31.808L 359.466 31.168L 358.186 17.088L 321.834 17.088L 320.554 31.168L 327.85 31.808L 329.13 24.384L 335.722 24.384L 335.722 51.392L 329.322 51.392L 329.322 58.688L 351.082 58.688L 351.082 51.392L 344.298 51.392L 344.298 24.384L 350.89 24.384L 352.17 31.808Z"/>
<path id="path64_fill" d="M 360.32 0L 403.456 0L 403.456 51.392L 399.488 51.392L 384.512 17.088L 370.24 17.088L 370.24 24.384L 376 24.384L 364.096 51.392L 360.32 51.392L 360.32 0ZM 382.016 29.312L 386.368 41.024L 376.96 41.024L 381.632 29.312L 382.016 29.312ZM 403.456 72.32L 360.32 72.32L 360.32 58.688L 376.704 58.688L 376.704 51.392L 372.8 51.392L 374.528 47.168L 388.672 47.168L 390.208 51.392L 386.88 51.392L 386.88 58.688L 403.456 58.688L 403.456 72.32Z"/>
<path id="path65_fill" d="M 402.195 72.32L 402.195 0L 445.203 0L 445.203 72.32L 402.195 72.32ZM 435.795 31.808L 443.091 31.168L 441.811 17.088L 405.459 17.088L 404.179 31.168L 411.475 31.808L 412.755 24.384L 419.347 24.384L 419.347 51.392L 412.947 51.392L 412.947 58.688L 434.707 58.688L 434.707 51.392L 427.923 51.392L 427.923 24.384L 434.515 24.384L 435.795 31.808Z"/>
<path id="path66_fill" d="M 443.945 72.32L 443.945 0L 467.817 0L 467.817 72.32L 443.945 72.32ZM 447.081 58.688L 464.617 58.688L 464.617 51.392L 460.137 51.392L 460.137 24.384L 464.617 24.384L 464.617 17.088L 447.081 17.088L 447.081 24.384L 451.561 24.384L 451.561 51.392L 447.081 51.392L 447.081 58.688Z"/>
<path id="path67_fill" d="M 466.508 72.32L 466.508 0L 513.356 0L 513.356 72.32L 466.508 72.32ZM 511.18 37.824C 511.18 31.9787 509.302 26.9653 505.548 22.784C 501.836 18.56 496.652 16.448 489.996 16.448C 483.468 16.448 478.284 18.5173 474.444 22.656C 470.604 26.7947 468.684 31.8933 468.684 37.952C 468.684 43.7547 470.497 48.768 474.124 52.992C 477.75 57.216 482.956 59.328 489.74 59.328C 496.481 59.328 501.729 57.216 505.483 52.992C 509.281 48.768 511.18 43.712 511.18 37.824ZM 501.9 38.08C 501.9 42.1333 500.961 45.44 499.083 48C 497.206 50.5173 494.241 51.776 490.188 51.776C 485.793 51.776 482.657 50.3893 480.78 47.616C 478.902 44.8427 477.964 41.5573 477.964 37.76C 477.964 33.8347 478.924 30.5707 480.844 27.968C 482.764 25.3227 485.793 24 489.931 24C 493.814 24 496.78 25.2373 498.828 27.712C 500.876 30.1867 501.9 33.6427 501.9 38.08Z"/>
<path id="path68_fill" d="M 512.07 72.32L 512.07 0L 561.99 0L 561.99 72.32L 512.07 72.32ZM 555.142 24.384L 559.622 24.384L 559.622 17.088L 541.126 17.088L 541.126 24.384L 547.142 24.384L 547.142 41.792L 546.886 41.792L 525.894 17.088L 514.566 17.088L 514.566 24.384L 519.75 24.384L 519.75 51.392L 515.27 51.392L 515.27 58.688L 533.51 58.688L 533.51 51.392L 527.75 51.392L 527.75 32.32L 528.006 32.32L 550.342 58.752L 555.142 58.688L 555.142 24.384Z"/>
<path id="path69_fill" d="M 560.695 72.32L 560.695 0L 576.183 0L 576.183 72.32L 560.695 72.32ZM 565.367 49.152L 561.527 64.128L 569.591 64.128L 573.431 49.152L 565.367 49.152Z"/>
<path id="path70_fill" d="M 574.562 72.32L 574.562 0L 587.875 0L 587.875 72.32L 574.562 72.32Z"/>
<path id="path71_fill" d="M 586.258 72.32L 586.258 0L 625.873 0L 625.873 72.32L 586.258 72.32ZM 624.273 30.656C 624.273 26.4747 622.93 23.168 620.242 20.736C 617.554 18.304 613.628 17.088 608.466 17.088L 589.393 17.088L 589.393 24.384L 593.873 24.384L 593.873 51.392L 589.393 51.392L 589.393 58.688L 608.849 58.688L 608.849 51.392L 602.45 51.392L 602.45 44.736L 608.849 44.736C 612.945 44.736 616.53 43.584 619.602 41.28C 622.716 38.9333 624.273 35.392 624.273 30.656ZM 615.057 30.784C 615.057 32.7893 614.482 34.4107 613.33 35.648C 612.22 36.8853 610.194 37.504 607.25 37.504L 602.45 37.504L 602.45 24.384L 607.378 24.384C 610.236 24.384 612.22 24.9387 613.33 26.048C 614.482 27.1573 615.057 28.736 615.057 30.784Z"/>
<path id="path72_fill" d="M 624.57 72.32L 624.57 0L 661.626 0L 661.626 72.32L 624.57 72.32ZM 627.706 58.688L 658.938 58.688L 660.218 43.968L 652.922 43.328L 651.642 51.392L 640.762 51.392L 640.762 24.384L 646.586 24.384L 646.586 17.088L 627.706 17.088L 627.706 24.384L 632.186 24.384L 632.186 51.392L 627.706 51.392L 627.706 58.688Z"/>
<path id="path73_fill" d="M 660.32 72.32L 660.32 0L 699.296 0L 699.296 72.32L 660.32 72.32ZM 662.496 58.688L 696.16 58.688L 697.44 44.352L 690.144 43.712L 688.864 51.392L 674.656 51.392L 674.656 51.264L 696.096 20.992L 695.968 17.088L 664.864 17.088L 663.584 30.208L 670.88 30.848L 672.16 24.384L 683.424 24.384L 683.424 24.448L 662.304 54.272L 662.496 58.688Z"/>
<path id="path74_fill" d="M 698.008 72.32L 698.008 0L 737.304 0L 737.304 72.32L 698.008 72.32ZM 701.143 58.688L 733.271 58.688L 734.552 46.528L 727.255 45.888L 725.976 51.392L 714.2 51.392L 714.2 41.408L 731.735 41.408L 731.735 34.176L 714.2 34.176L 714.2 24.384L 725.591 24.384L 726.872 29.888L 734.167 29.248L 732.888 17.088L 701.143 17.088L 701.143 24.384L 705.623 24.384L 705.623 51.392L 701.143 51.392L 701.143 58.688Z"/>
<path id="path75_fill" d="M 736.008 72.32L 736.008 0L 785.927 0L 785.927 72.32L 736.008 72.32ZM 761.799 14.848L 770.44 8.064L 768.583 4.672L 760.776 8.512L 752.008 4.672L 750.216 8L 758.919 14.848L 761.799 14.848ZM 779.08 24.384L 783.56 24.384L 783.56 17.088L 765.063 17.088L 765.063 24.384L 771.08 24.384L 771.08 41.792L 770.823 41.792L 749.831 17.088L 738.503 17.088L 738.503 24.384L 743.688 24.384L 743.688 51.392L 739.208 51.392L 739.208 58.688L 757.448 58.688L 757.448 51.392L 751.688 51.392L 751.688 32.32L 751.943 32.32L 774.279 58.752L 779.08 58.688L 779.08 24.384Z"/>
<path id="path76_fill" d="M 784.312 72.32L 784.312 0L 797.625 0L 797.625 72.32L 784.312 72.32Z"/>
<path id="path77_fill" d="M 1232.75 72.32L 1232.75 0L 1246.06 0L 1246.06 72.32L 1232.75 72.32Z"/>
<path id="path78_fill" d="M 1244.44 0L 1280.09 0L 1280.09 72.32L 1244.44 72.32L 1244.44 0ZM 1249.63 27.2L 1248.29 36.992L 1254.88 37.696L 1255.84 32.96C 1256.52 32.6187 1257.37 32.384 1258.4 32.256C 1259.42 32.0853 1260.32 32 1261.08 32C 1262.58 32 1263.88 32.2987 1264.99 32.896C 1266.1 33.4507 1266.65 34.4107 1266.65 35.776C 1266.65 37.5253 1265.74 39.232 1263.9 40.896C 1262.11 42.5173 1259.74 44.224 1256.8 46.016C 1253.85 47.808 1250.7 49.7707 1247.32 51.904L 1248.09 58.688L 1277.15 58.688L 1278.11 48.256L 1271.26 47.616L 1270.81 51.392L 1257.24 51.392C 1260.15 49.856 1263.03 48.32 1265.89 46.784C 1268.74 45.248 1271.11 43.4987 1272.99 41.536C 1274.91 39.5733 1275.87 37.2053 1275.87 34.432C 1275.87 31.9147 1274.84 29.6747 1272.8 27.712C 1270.79 25.7067 1267.27 24.704 1262.24 24.704C 1260.7 24.704 1258.82 24.8747 1256.6 25.216C 1254.43 25.5147 1252.1 26.176 1249.63 27.2Z"/>
<path id="path79_fill" d="M 1278.82 0L 1305.96 0L 1305.96 72.32L 1278.82 72.32L 1278.82 0ZM 1304.23 58.688L 1304.23 51.392L 1297.83 51.392L 1297.83 25.344L 1282.21 25.344L 1282.21 32.64L 1289.25 32.64L 1289.25 51.392L 1282.21 51.392L 1282.21 58.688L 1304.23 58.688Z"/>
<path id="path80_fill" d="M 1304.69 72.32L 1304.69 0L 1320.5 0L 1320.5 72.32L 1304.69 72.32ZM 1307.7 48.256L 1307.7 58.688L 1317.49 58.688L 1317.49 48.256L 1307.7 48.256Z"/>
<path id="path81_fill" d="M 1319.26 0L 1357.02 0L 1357.02 72.32L 1319.26 72.32L 1319.26 0ZM 1348.76 67.008L 1348.76 56.832L 1354.39 56.832L 1355.03 49.728L 1348.76 49.728L 1348.76 25.344L 1333.53 25.344L 1320.86 49.728L 1321.75 56.832L 1340.19 56.832L 1340.19 67.008L 1348.76 67.008ZM 1340.19 49.728L 1329.05 49.728L 1337.75 32.64L 1340.19 32.64L 1340.19 49.728Z"/>
<path id="path82_fill" d="M 1355.76 72.32L 1355.76 0L 1371.57 0L 1371.57 72.32L 1355.76 72.32ZM 1358.77 48.256L 1358.77 58.688L 1368.56 58.688L 1368.56 48.256L 1358.77 48.256Z"/>
<path id="path83_fill" d="M 1370 72.32L 1370 0L 1383.31 0L 1383.31 72.32L 1370 72.32Z"/>
<path id="path84_fill" d="M 353 404.32L 353 332L 366.312 332L 366.312 404.32L 353 404.32Z"/>
<path id="path85_fill" d="M 364.695 404.32L 364.695 332L 423.575 332L 423.575 404.32L 364.695 404.32ZM 415.831 356.384L 420.951 356.384L 420.951 349.088L 408.535 349.088L 394.647 374.88L 394.391 374.88L 379.607 349.088L 367.319 349.088L 367.319 356.384L 372.439 356.384L 372.439 383.392L 367.959 383.392L 367.959 390.688L 384.407 390.688L 384.407 383.392L 380.439 383.392L 380.439 366.752L 380.695 366.752L 392.471 387.296L 396.055 387.296L 406.999 367.52L 407.255 367.52L 407.255 383.392L 403.607 383.392L 403.607 390.688L 420.311 390.688L 420.311 383.392L 415.831 383.392L 415.831 356.384Z"/>
<path id="path86_fill" d="M 422.32 404.32L 422.32 332L 469.168 332L 469.168 404.32L 422.32 404.32ZM 466.992 369.824C 466.992 363.979 465.115 358.965 461.36 354.784C 457.648 350.56 452.464 348.448 445.808 348.448C 439.28 348.448 434.096 350.517 430.256 354.656C 426.416 358.795 424.496 363.893 424.496 369.952C 424.496 375.755 426.309 380.768 429.936 384.992C 433.563 389.216 438.768 391.328 445.552 391.328C 452.293 391.328 457.541 389.216 461.296 384.992C 465.093 380.768 466.992 375.712 466.992 369.824ZM 457.712 370.08C 457.712 374.133 456.773 377.44 454.896 380C 453.019 382.517 450.053 383.776 446 383.776C 441.605 383.776 438.469 382.389 436.592 379.616C 434.715 376.843 433.776 373.557 433.776 369.76C 433.776 365.835 434.736 362.571 436.656 359.968C 438.576 357.323 441.605 356 445.744 356C 449.627 356 452.592 357.237 454.64 359.712C 456.688 362.187 457.712 365.643 457.712 370.08Z"/>
<path id="path87_fill" d="M 467.883 404.32L 467.883 332L 508.97 332L 508.97 404.32L 467.883 404.32ZM 506.794 378.336C 506.794 375.563 506.027 373.216 504.491 371.296C 502.997 369.376 500.757 368.203 497.771 367.776L 497.771 367.52C 500.16 367.136 502.016 366.133 503.339 364.512C 504.661 362.891 505.323 360.992 505.323 358.816C 505.323 355.872 504.149 353.525 501.802 351.776C 499.498 349.984 496.448 349.088 492.651 349.088L 471.018 349.088L 471.018 356.384L 475.499 356.384L 475.499 383.392L 471.018 383.392L 471.018 390.688L 492.906 390.688C 497.685 390.688 501.184 389.472 503.402 387.04C 505.664 384.565 506.794 381.664 506.794 378.336ZM 496.107 361.056C 496.107 362.464 495.659 363.659 494.763 364.64C 493.867 365.621 492.203 366.112 489.771 366.112L 484.074 366.112L 484.074 356.384L 490.41 356.384C 491.946 356.384 493.269 356.704 494.379 357.344C 495.531 357.941 496.107 359.179 496.107 361.056ZM 497.578 378.016C 497.578 381.6 495.275 383.392 490.667 383.392L 484.074 383.392L 484.074 372.768L 491.242 372.768C 495.466 372.768 497.578 374.517 497.578 378.016Z"/>
<path id="path88_fill" d="M 507.695 404.32L 507.695 332L 531.567 332L 531.567 404.32L 507.695 404.32ZM 510.831 390.688L 528.367 390.688L 528.367 383.392L 523.887 383.392L 523.887 356.384L 528.367 356.384L 528.367 349.088L 510.831 349.088L 510.831 356.384L 515.311 356.384L 515.311 383.392L 510.831 383.392L 510.831 390.688Z"/>
<path id="path89_fill" d="M 530.258 404.32L 530.258 332L 567.313 332L 567.313 404.32L 530.258 404.32ZM 533.393 390.688L 564.625 390.688L 565.906 375.968L 558.609 375.328L 557.33 383.392L 546.45 383.392L 546.45 356.384L 552.273 356.384L 552.273 349.088L 533.393 349.088L 533.393 356.384L 537.873 356.384L 537.873 383.392L 533.393 383.392L 533.393 390.688Z"/>
<path id="path90_fill" d="M 566.008 404.32L 566.008 332L 605.304 332L 605.304 404.32L 566.008 404.32ZM 569.143 390.688L 601.271 390.688L 602.552 378.528L 595.255 377.888L 593.976 383.392L 582.2 383.392L 582.2 373.408L 599.735 373.408L 599.735 366.176L 582.2 366.176L 582.2 356.384L 593.591 356.384L 594.872 361.888L 602.167 361.248L 600.888 349.088L 569.143 349.088L 569.143 356.384L 573.623 356.384L 573.623 383.392L 569.143 383.392L 569.143 390.688Z"/>
<path id="path91_fill" d="M 603.688 404.32L 603.688 332L 617 332L 617 404.32L 603.688 404.32Z"/>
<path id="path92_fill" d="M 1108.44 404.32L 1108.44 332L 1121.75 332L 1121.75 404.32L 1108.44 404.32Z"/>
<path id="path93_fill" d="M 1120.13 404.32L 1120.13 332L 1157.06 332L 1157.06 404.32L 1120.13 404.32ZM 1154.44 378.08C 1154.44 374.539 1153.56 371.936 1151.81 370.272C 1150.11 368.565 1148.1 367.413 1145.8 366.816C 1143.54 366.176 1141.55 365.685 1139.84 365.344C 1137.97 364.917 1136.3 364.363 1134.85 363.68C 1133.4 362.997 1132.68 361.781 1132.68 360.032C 1132.68 358.539 1133.23 357.493 1134.34 356.896C 1135.49 356.299 1136.92 356 1138.63 356C 1139.65 356 1140.7 356.128 1141.76 356.384C 1142.87 356.64 1143.96 357.131 1145.03 357.856L 1145.6 362.72L 1152.45 362.08L 1152.07 353.056C 1150.75 351.648 1148.85 350.539 1146.37 349.728C 1143.9 348.875 1141.3 348.448 1138.56 348.448C 1134.81 348.448 1131.35 349.408 1128.2 351.328C 1125.04 353.205 1123.46 356.469 1123.46 361.12C 1123.46 364.107 1124.14 366.368 1125.51 367.904C 1126.87 369.397 1128.56 370.485 1130.56 371.168C 1132.61 371.808 1134.64 372.299 1136.64 372.64C 1138.95 373.067 1140.95 373.685 1142.66 374.496C 1144.37 375.264 1145.22 376.8 1145.22 379.104C 1145.22 381.195 1144.5 382.539 1143.04 383.136C 1141.59 383.691 1139.74 383.968 1137.48 383.968C 1136.75 383.968 1135.88 383.904 1134.85 383.776C 1133.83 383.605 1132.59 383.136 1131.14 382.368L 1131.2 377.312L 1124.36 376.672L 1123.08 386.976C 1124.7 388.427 1126.9 389.515 1129.67 390.24C 1132.48 390.965 1135.3 391.328 1138.12 391.328C 1143.19 391.328 1147.18 390.197 1150.08 387.936C 1152.99 385.675 1154.44 382.389 1154.44 378.08Z"/>
<path id="path94_fill" d="M 1155.76 404.32L 1155.76 332L 1202.61 332L 1202.61 404.32L 1155.76 404.32ZM 1200.43 369.824C 1200.43 363.979 1198.55 358.965 1194.8 354.784C 1191.09 350.56 1185.9 348.448 1179.25 348.448C 1172.72 348.448 1167.53 350.517 1163.69 354.656C 1159.85 358.795 1157.93 363.893 1157.93 369.952C 1157.93 375.755 1159.75 380.768 1163.37 384.992C 1167 389.216 1172.21 391.328 1178.99 391.328C 1185.73 391.328 1190.98 389.216 1194.73 384.992C 1198.53 380.768 1200.43 375.712 1200.43 369.824ZM 1191.15 370.08C 1191.15 374.133 1190.21 377.44 1188.33 380C 1186.46 382.517 1183.49 383.776 1179.44 383.776C 1175.04 383.776 1171.91 382.389 1170.03 379.616C 1168.15 376.843 1167.21 373.557 1167.21 369.76C 1167.21 365.835 1168.17 362.571 1170.09 359.968C 1172.01 357.323 1175.04 356 1179.18 356C 1183.06 356 1186.03 357.237 1188.08 359.712C 1190.13 362.187 1191.15 365.643 1191.15 370.08Z"/>
<path id="path95_fill" d="M 1201.32 404.32L 1201.32 332L 1242.41 332L 1242.41 404.32L 1201.32 404.32ZM 1240.23 378.336C 1240.23 375.563 1239.46 373.216 1237.93 371.296C 1236.43 369.376 1234.19 368.203 1231.21 367.776L 1231.21 367.52C 1233.6 367.136 1235.45 366.133 1236.78 364.512C 1238.1 362.891 1238.76 360.992 1238.76 358.816C 1238.76 355.872 1237.59 353.525 1235.24 351.776C 1232.94 349.984 1229.89 349.088 1226.09 349.088L 1204.46 349.088L 1204.46 356.384L 1208.94 356.384L 1208.94 383.392L 1204.46 383.392L 1204.46 390.688L 1226.34 390.688C 1231.12 390.688 1234.62 389.472 1236.84 387.04C 1239.1 384.565 1240.23 381.664 1240.23 378.336ZM 1229.54 361.056C 1229.54 362.464 1229.1 363.659 1228.2 364.64C 1227.3 365.621 1225.64 366.112 1223.21 366.112L 1217.51 366.112L 1217.51 356.384L 1223.85 356.384C 1225.38 356.384 1226.71 356.704 1227.82 357.344C 1228.97 357.941 1229.54 359.179 1229.54 361.056ZM 1231.02 378.016C 1231.02 381.6 1228.71 383.392 1224.1 383.392L 1217.51 383.392L 1217.51 372.768L 1224.68 372.768C 1228.9 372.768 1231.02 374.517 1231.02 378.016Z"/>
<path id="path96_fill" d="M 1241.13 404.32L 1241.13 332L 1287.98 332L 1287.98 404.32L 1241.13 404.32ZM 1285.8 369.824C 1285.8 363.979 1283.93 358.965 1280.17 354.784C 1276.46 350.56 1271.28 348.448 1264.62 348.448C 1258.09 348.448 1252.91 350.517 1249.07 354.656C 1245.23 358.795 1243.31 363.893 1243.31 369.952C 1243.31 375.755 1245.12 380.768 1248.75 384.992C 1252.38 389.216 1257.58 391.328 1264.36 391.328C 1271.11 391.328 1276.35 389.216 1280.11 384.992C 1283.91 380.768 1285.8 375.712 1285.8 369.824ZM 1276.52 370.08C 1276.52 374.133 1275.59 377.44 1273.71 380C 1271.83 382.517 1268.87 383.776 1264.81 383.776C 1260.42 383.776 1257.28 382.389 1255.4 379.616C 1253.53 376.843 1252.59 373.557 1252.59 369.76C 1252.59 365.835 1253.55 362.571 1255.47 359.968C 1257.39 357.323 1260.42 356 1264.56 356C 1268.44 356 1271.4 357.237 1273.45 359.712C 1275.5 362.187 1276.52 365.643 1276.52 370.08Z"/>
<path id="path97_fill" d="M 1286.69 404.32L 1286.69 332L 1329.7 332L 1329.7 404.32L 1286.69 404.32ZM 1320.3 363.808L 1327.59 363.168L 1326.31 349.088L 1289.96 349.088L 1288.68 363.168L 1295.97 363.808L 1297.26 356.384L 1303.85 356.384L 1303.85 383.392L 1297.45 383.392L 1297.45 390.688L 1319.21 390.688L 1319.21 383.392L 1312.42 383.392L 1312.42 356.384L 1319.02 356.384L 1320.3 363.808Z"/>
<path id="path98_fill" d="M 1328.44 332L 1371.58 332L 1371.58 383.392L 1367.61 383.392L 1352.64 349.088L 1338.36 349.088L 1338.36 356.384L 1344.12 356.384L 1332.22 383.392L 1328.44 383.392L 1328.44 332ZM 1350.14 361.312L 1354.49 373.024L 1345.08 373.024L 1349.76 361.312L 1350.14 361.312ZM 1371.58 404.32L 1328.44 404.32L 1328.44 390.688L 1344.83 390.688L 1344.83 383.392L 1340.93 383.392L 1342.65 379.168L 1356.8 379.168L 1358.33 383.392L 1355.01 383.392L 1355.01 390.688L 1371.58 390.688L 1371.58 404.32Z"/>
<path id="path99_fill" d="M 1370 404.32L 1370 332L 1383.31 332L 1383.31 404.32L 1370 404.32Z"/>
<path id="path100_fill" d="M 648 404.32L 648 332L 661.312 332L 661.312 404.32L 648 404.32Z"/>
<path id="path101_fill" d="M 676.271 356.384L 676.271 349.088L 659.695 349.088L 659.695 332L 721.967 332L 721.967 349.088L 705.583 349.088L 705.583 356.384L 710.063 356.384L 704.559 376.864L 704.175 376.864L 696.815 356.384L 699.759 356.384L 699.759 349.088L 683.183 349.088L 683.183 356.384L 686.447 356.384L 679.023 376.48L 678.639 376.48L 672.431 356.384L 676.271 356.384ZM 721.967 404.32L 659.695 404.32L 659.695 356.384L 663.279 356.384L 675.439 390.688L 681.647 390.688L 690.991 363.808L 691.311 363.808L 701.103 390.688L 707.183 390.688L 718.639 356.384L 721.967 356.384L 721.967 404.32Z"/>
<path id="path102_fill" d="M 720.695 404.32L 720.695 332L 759.991 332L 759.991 404.32L 720.695 404.32ZM 723.831 390.688L 755.959 390.688L 757.239 378.528L 749.943 377.888L 748.663 383.392L 736.887 383.392L 736.887 373.408L 754.423 373.408L 754.423 366.176L 736.887 366.176L 736.887 356.384L 748.279 356.384L 749.559 361.888L 756.855 361.248L 755.575 349.088L 723.831 349.088L 723.831 356.384L 728.311 356.384L 728.311 383.392L 723.831 383.392L 723.831 390.688Z"/>
<path id="path103_fill" d="M 758.695 404.32L 758.695 332L 799.783 332L 799.783 404.32L 758.695 404.32ZM 797.607 378.336C 797.607 375.563 796.839 373.216 795.303 371.296C 793.81 369.376 791.57 368.203 788.583 367.776L 788.583 367.52C 790.972 367.136 792.828 366.133 794.151 364.512C 795.474 362.891 796.135 360.992 796.135 358.816C 796.135 355.872 794.962 353.525 792.615 351.776C 790.311 349.984 787.26 349.088 783.463 349.088L 761.831 349.088L 761.831 356.384L 766.311 356.384L 766.311 383.392L 761.831 383.392L 761.831 390.688L 783.719 390.688C 788.498 390.688 791.996 389.472 794.215 387.04C 796.476 384.565 797.607 381.664 797.607 378.336ZM 786.919 361.056C 786.919 362.464 786.471 363.659 785.575 364.64C 784.679 365.621 783.015 366.112 780.583 366.112L 774.887 366.112L 774.887 356.384L 781.223 356.384C 782.759 356.384 784.082 356.704 785.191 357.344C 786.343 357.941 786.919 359.179 786.919 361.056ZM 788.391 378.016C 788.391 381.6 786.087 383.392 781.479 383.392L 774.887 383.392L 774.887 372.768L 782.055 372.768C 786.279 372.768 788.391 374.517 788.391 378.016Z"/>
<path id="path104_fill" d="M 798.188 404.32L 798.188 332L 811.5 332L 811.5 404.32L 798.188 404.32Z"/>
</defs>
</svg>
