<svg width="128" height="128" viewBox="0 0 128 128" version="1.1" xmlns="http://www.w3.org/2000/svg" xmlns:xlink="http://www.w3.org/1999/xlink">
<title>ic_food</title>
<desc>Created using Figma</desc>
<g id="Canvas" transform="translate(-15994 -2939)">
<clipPath id="clip-0" clip-rule="evenodd">
<path d="M 15994 2939L 16122 2939L 16122 3067L 15994 3067L 15994 2939Z" fill="#FFFFFF"/>
</clipPath>
<g id="ic_food" clip-path="url(#clip-0)">
<g id="Vector">
<use xlink:href="#path0_fill" transform="translate(15995 2946)" fill="#222222"/>
</g>
</g>
</g>
<defs>
<path id="path0_fill" d="M 85.05 114L 75.6 31.6667L 89.649 31.6667L 82.53 2.91333L 93.492 0L 101.367 31.6667L 126 31.6667L 116.55 114L 85.05 114ZM 18.9 50.6667L 50.4 50.6667C 55.4126 50.6667 60.2199 52.6684 63.7643 56.2316C 67.3088 59.7948 69.3 64.6276 69.3 69.6667L 1.39888e-15 69.6667C 4.19664e-15 64.6276 1.99124 59.7948 5.53568 56.2316C 9.08012 52.6684 13.8874 50.6667 18.9 50.6667ZM 69.3 95C 69.3 100.039 67.3088 104.872 63.7643 108.435C 60.2199 111.998 55.4126 114 50.4 114L 18.9 114C 13.8874 114 9.08012 111.998 5.53568 108.435C 1.99124 104.872 6.99441e-15 100.039 1.39888e-15 95L 69.3 95ZM 6.3 76L 37.8 76L 47.25 85.5L 56.7 76L 63 76C 64.6709 76 66.2733 76.6673 67.4548 77.855C 68.6363 79.0427 69.3 80.6536 69.3 82.3333C 69.3 84.013 68.6363 85.624 67.4548 86.8117C 66.2733 87.9994 64.6709 88.6667 63 88.6667L 6.3 88.6667C 4.62914 88.6667 3.02671 87.9994 1.84523 86.8117C 0.663748 85.624 5.59552e-15 84.013 1.39888e-15 82.3333C 2.79776e-15 80.6536 0.663748 79.0427 1.84523 77.855C 3.02671 76.6673 4.62914 76 6.3 76Z"/>
</defs>
</svg>
