<svg width="128" height="128" viewBox="0 0 128 128" version="1.1" xmlns="http://www.w3.org/2000/svg" xmlns:xlink="http://www.w3.org/1999/xlink">
<title>ic_networking</title>
<desc>Created using Figma</desc>
<g id="Canvas" transform="translate(-16226 -2939)">
<clipPath id="clip-0" clip-rule="evenodd">
<path d="M 16226 2939L 16354 2939L 16354 3067L 16226 3067L 16226 2939Z" fill="#FFFFFF"/>
</clipPath>
<g id="ic_networking" clip-path="url(#clip-0)">
<g id="Vector">
<use xlink:href="#path0_fill" transform="translate(16227 2946)" fill="#222222"/>
<use xlink:href="#path1_fill" transform="translate(16227 2946)" fill="#222222"/>
</g>
</g>
</g>
<defs>
<path id="path0_fill" d="M 84.8722 0L 9.43024 0C 6.92919 2.12082e-15 4.53057 1.0063 2.76205 2.79752C 0.99354 4.58874 2.09393e-15 7.01816 0 9.55134L 0 95.5134L 18.8605 76.4107L 84.8722 76.4107C 87.3732 76.4107 89.7719 75.4044 91.5404 73.6132C 93.3089 71.8219 94.3024 69.3925 94.3024 66.8594L 94.3024 9.55134C 94.3024 7.01816 93.3089 4.58874 91.5404 2.79752C 89.7719 1.0063 87.3732 2.12082e-15 84.8722 0Z"/>
<path id="path1_fill" d="M 55.2124 33.8921L 118.486 33.8921C 120.584 33.8921 122.596 34.7361 124.079 36.2384C 125.562 37.7407 126.396 39.7783 126.396 41.9029L 126.396 114L 110.577 97.9785L 55.2124 97.9785C 53.1147 97.9785 51.103 97.1345 49.6197 95.6322C 48.1364 94.1298 47.3031 92.0923 47.3031 89.9677L 47.3031 41.9029C 47.3031 39.7783 48.1364 37.7407 49.6197 36.2384C 51.103 34.7361 53.1147 33.8921 55.2124 33.8921ZM 55.2124 89.9677L 110.577 89.9677L 118.486 97.9785L 118.486 41.9029L 55.2124 41.9029L 55.2124 89.9677Z"/>
</defs>
</svg>
