<svg width="400" height="220" viewBox="0 0 400 220" version="1.1" xmlns="http://www.w3.org/2000/svg" xmlns:xlink="http://www.w3.org/1999/xlink">
<title>Subtract</title>
<desc>Created using Figma</desc>
<g id="Canvas" transform="translate(-14549 -4729)">
<g id="Subtract">
<mask id="mask0_outline_ins">
<use xlink:href="#path0_fill" fill="white" transform="translate(14549 4729)"/>
</mask>
<g mask="url(#mask0_outline_ins)">
<use xlink:href="#path1_stroke_2x" transform="translate(14549 4729)" fill="#333333"/>
</g>
</g>
</g>
<defs>
<path id="path0_fill" fill-rule="evenodd" d="M 0 4C 0 1.79102 1.79102 0 4 0L 396 0C 398.209 0 400 1.79102 400 4L 400 52C 375.147 52 355 77.9673 355 110C 355 142.033 375.147 168 400 168L 400 216C 400 218.209 398.209 220 396 220L 4 220C 1.79102 220 0 218.209 0 216L 0 168C 24.8525 168 45 142.033 45 110C 45 77.9673 24.8525 52 0 52L 0 4Z"/>
<path id="path1_stroke_2x" d="M 400 52L 400 58L 406 58L 406 52L 400 52ZM 400 168L 406 168L 406 162L 400 162L 400 168ZM 0 168L 0 162L -6 162L -6 168L 0 168ZM 0 52L -6 52L -6 58L 0 58L 0 52ZM 4 -6C -1.52269 -6 -6 -1.52269 -6 4L 6 4C 6 5.10472 5.10472 6 4 6L 4 -6ZM 396 -6L 4 -6L 4 6L 396 6L 396 -6ZM 406 4C 406 -1.52269 401.523 -6 396 -6L 396 6C 394.895 6 394 5.10472 394 4L 406 4ZM 406 52L 406 4L 394 4L 394 52L 406 52ZM 361 110C 361 79.7753 379.789 58 400 58L 400 46C 370.506 46 349 76.1593 349 110L 361 110ZM 400 162C 379.789 162 361 140.225 361 110L 349 110C 349 143.841 370.506 174 400 174L 400 162ZM 406 216L 406 168L 394 168L 394 216L 406 216ZM 396 226C 401.523 226 406 221.523 406 216L 394 216C 394 214.895 394.895 214 396 214L 396 226ZM 4 226L 396 226L 396 214L 4 214L 4 226ZM -6 216C -6 221.523 -1.52269 226 4 226L 4 214C 5.10472 214 6 214.895 6 216L -6 216ZM -6 168L -6 216L 6 216L 6 168L -6 168ZM 39 110C 39 140.225 20.2112 162 0 162L 0 174C 29.4939 174 51 143.841 51 110L 39 110ZM 0 58C 20.2112 58 39 79.7753 39 110L 51 110C 51 76.1593 29.4939 46 0 46L 0 58ZM -6 4L -6 52L 6 52L 6 4L -6 4Z"/>
</defs>
</svg>
