<svg width="110" height="110" viewBox="0 0 110 110" fill="none" xmlns="http://www.w3.org/2000/svg">
<path d="M110 0H0V78.041L13.9394 60.5801L8.26596 56.1323L28.4344 48.2728L25.3572 69.5313L19.86 65.2217L0 90.0988V101.941L41.6041 49.8268L35.9306 45.379L56.099 37.5196L53.0219 58.7781L47.5247 54.4684L3.19258 110H13.6367L70.3236 39.2517L64.8341 34.9323L64.9932 34.8706L64.9062 34.8024L85.0746 26.943L81.9975 48.2015L81.9322 48.1503L81.9012 48.3615L76.3924 44.0269L26.3971 106.652L26.1277 106.441L23.2764 110H33.8339L66.1496 69.6682L60.6602 65.3488L80.8426 57.525L77.7273 78.778L72.0619 74.3202L43.4735 110H110V0Z" fill="#222222"/>
</svg>
