<?xml version="1.0" encoding="iso-8859-1"?>
<!-- Generator: Adobe Illustrator 16.0.0, SVG Export Plug-In . SVG Version: 6.00 Build 0)  -->
<!DOCTYPE svg PUBLIC "-//W3C//DTD SVG 1.1//EN" "http://www.w3.org/Graphics/SVG/1.1/DTD/svg11.dtd">
<svg version="1.1" id="Capa_1" xmlns="http://www.w3.org/2000/svg" xmlns:xlink="http://www.w3.org/1999/xlink" x="0px" y="0px"
	 width="45.957px" height="45.956px" viewBox="0 0 45.957 45.956" style="enable-background:new 0 0 45.957 45.956;"
	 xml:space="preserve">
<g>
	<g>
		<path d="M32.949,0C26.24,0,20.782,5.456,20.782,12.164S26.24,24.33,32.949,24.33c6.707,0,12.164-5.458,12.164-12.166
			S39.656,0,32.949,0z M32.949,20.025c-4.336,0-7.861-3.527-7.861-7.861s3.525-7.86,7.861-7.86c4.332,0,7.858,3.526,7.858,7.86
			S37.283,20.025,32.949,20.025z"/>
		<path d="M33.592,6.26c-0.04-0.294-0.271-0.538-0.578-0.578c-0.369-0.049-0.705,0.21-0.753,0.578l-0.77,5.905
			c-0.002,0.012,0,0.024-0.002,0.037c-0.004,0.037-0.007,0.074-0.007,0.111c0,0.019-0.002,0.037,0,0.056
			c0,0.043,0.003,0.087,0.009,0.133c0,0.012,0,0.025,0.002,0.038c0.096,0.743,0.74,1.28,1.475,1.259
			c0.048-0.001,0.097-0.005,0.146-0.013l5.903-0.768c0.294-0.04,0.54-0.272,0.579-0.579c0.049-0.369-0.211-0.706-0.579-0.753
			l-4.8-0.626L33.592,6.26z"/>
		<circle cx="32.947" cy="17.572" r="1.081"/>
		<circle cx="27.414" cy="12.165" r="1.081"/>
		<circle cx="10.588" cy="7.244" r="4.321"/>
		<path d="M21.528,27.629l-8.305-11.858v-0.318c0-1.539-1.33-2.768-2.901-2.611c-1.366,0.137-2.36,1.388-2.36,2.76v14.607
			c0,1.449,1.176,2.635,2.625,2.635h8.756c2.152,0,3.901,1.734,3.901,3.887v6.451c0,1.373,0.994,2.625,2.36,2.761
			c1.571,0.157,2.901-1.072,2.901-2.611v-7.933C28.505,31.366,25.449,28.047,21.528,27.629z M13.223,23.092l3.134,4.488h-2.782
			c-0.194,0-0.352-0.156-0.352-0.352V23.092z"/>
		<path d="M17.973,35.049h-8.24c-2.016,0-3.667-1.65-3.667-3.666v-8.481c0-1.539-1.311-2.768-2.882-2.611
			c-1.366,0.136-2.341,1.387-2.341,2.761v9.767c0,4.122,3.333,7.454,7.457,7.454h7.188c0.346,0,0.639,0.291,0.639,0.636v2.274
			c0,1.373,0.975,2.623,2.341,2.76c1.571,0.156,2.882-1.072,2.882-2.611v-4.91C21.348,36.551,19.844,35.049,17.973,35.049z"/>
	</g>
</g>
<g>
</g>
<g>
</g>
<g>
</g>
<g>
</g>
<g>
</g>
<g>
</g>
<g>
</g>
<g>
</g>
<g>
</g>
<g>
</g>
<g>
</g>
<g>
</g>
<g>
</g>
<g>
</g>
<g>
</g>
</svg>
